<svg width="84" height="395" viewBox="0 0 84 395" fill="none" xmlns="http://www.w3.org/2000/svg">
<g opacity="0.1">
<path fill-rule="evenodd" clip-rule="evenodd" d="M447.126 -102.808H171.326L86.0796 151.856L309.226 309.251L532.378 151.856L447.126 -102.808ZM82.6638 152.929L169.221 -105.615H449.235L535.786 152.929L309.225 312.726L82.6638 152.929Z" fill="black"/>
<path fill-rule="evenodd" clip-rule="evenodd" d="M541.868 154.441L452.993 -110.984H165.464L76.5841 154.441L309.226 318.487L541.868 154.441ZM74.2557 155.97L73.4796 155.423L163.242 -112.662L163.542 -113.546H454.91L544.972 155.423L310.002 321.106L309.226 321.648L74.2557 155.97Z" fill="black"/>
<path fill-rule="evenodd" clip-rule="evenodd" d="M458.856 -119.166H159.595L67.0996 157.014L309.229 327.712L551.352 157.014L458.856 -119.166ZM64.2959 157.904L157.868 -121.477H460.586L554.158 157.904L309.23 330.57L64.2959 157.904Z" fill="black"/>
<path fill-rule="evenodd" clip-rule="evenodd" d="M464.715 -127.348H153.733L57.6046 159.605L309.227 336.948L560.843 159.605L464.715 -127.348ZM55.7328 160.831L55.1094 160.398L151.944 -128.694L152.185 -129.407H466.266L563.1 159.684L563.341 160.398L309.225 339.492L55.7328 160.831Z" fill="black"/>
<path fill-rule="evenodd" clip-rule="evenodd" d="M470.581 -134.538H147.867L48.1172 163.169L309.221 347.163L570.331 163.169L470.581 -134.538ZM46.4699 164.247L45.9229 163.859L146.296 -135.719L146.514 -136.347H471.933L572.319 163.232L572.524 163.859L309.221 349.406L46.4699 164.247Z" fill="black"/>
<path fill-rule="evenodd" clip-rule="evenodd" d="M579.806 165.752L476.443 -142.703H142.016L38.6465 165.752L309.226 356.394L579.806 165.752ZM37.2217 166.682L36.7393 166.346L140.661 -143.73L140.844 -144.277H477.612L581.528 165.804L581.711 166.346L309.701 357.985L309.225 358.328L37.2217 166.682Z" fill="black"/>
<path fill-rule="evenodd" clip-rule="evenodd" d="M482.305 -150.89H136.146L29.1494 168.332L309.223 365.629L589.296 168.332L482.305 -150.89ZM27.9488 169.12L27.5546 168.835L135.01 -151.746L135.157 -152.208H483.288L590.749 168.384L590.896 168.835L309.222 367.25L27.9488 169.12Z" fill="black"/>
<path fill-rule="evenodd" clip-rule="evenodd" d="M598.785 170.914L488.167 -159.072H130.287L19.6631 170.914L309.224 374.848L598.785 170.914ZM18.6977 171.547L18.3682 171.313L129.362 -159.774L129.486 -160.139H488.967L599.956 170.948L600.079 171.313L309.553 375.938L309.224 376.172L18.6977 171.547Z" fill="black"/>
<path fill-rule="evenodd" clip-rule="evenodd" d="M608.265 174.1L494.027 -167.258H124.423L10.1795 174.1L309.219 385.068L608.265 174.1ZM9.43745 174.586L9.18439 174.414L123.811 -168.069H494.639L609.265 174.414L309.466 385.908L309.219 386.085L9.43745 174.586Z" fill="black"/>
<path fill-rule="evenodd" clip-rule="evenodd" d="M118.131 -176L118.067 -175.8L0 176.895L0.176579 177.021L309.225 395.007L309.396 394.881L618.451 176.895L618.392 176.701L500.325 -176H118.131ZM0.688538 176.678L118.567 -175.434H499.889L617.762 176.678L309.225 394.293L0.688538 176.678Z" fill="black"/>
</g>
</svg>
