<svg width="24" height="24" viewBox="0 0 24 24" fill="none" xmlns="http://www.w3.org/2000/svg">
<g clip-path="url(#clip0_648_540)">
<path d="M20.9754 12.1506C20.748 12.1506 20.53 12.0603 20.3693 11.8995C20.2085 11.7388 20.1182 11.5208 20.1182 11.2934V8.82486C20.1504 8.33914 19.99 7.86028 19.6717 7.49195C19.3534 7.12362 18.9029 6.89546 18.4177 6.85686H3.58566C3.35833 6.85686 3.14031 6.76656 2.97957 6.60581C2.81882 6.44507 2.72852 6.22705 2.72852 5.99972C2.72852 5.77239 2.81882 5.55437 2.97957 5.39363C3.14031 5.23288 3.35833 5.14258 3.58566 5.14258H18.4177C19.3593 5.17655 20.249 5.58254 20.8917 6.27154C21.5344 6.96054 21.8777 7.8763 21.8462 8.81801V11.2866C21.8472 11.4009 21.8252 11.5142 21.7817 11.6199C21.7382 11.7256 21.674 11.8215 21.5928 11.902C21.5117 11.9825 21.4152 12.046 21.3092 12.0887C21.2032 12.1314 21.0897 12.1524 20.9754 12.1506Z" fill="#0E4DAA"/>
<path d="M18.4188 23.0941H3.58681C2.64519 23.0601 1.75546 22.6541 1.11274 21.9651C0.470021 21.2761 0.126763 20.3604 0.158238 19.4187V3.94894C0.158238 3.72161 0.248544 3.50359 0.40929 3.34285C0.570035 3.1821 0.788053 3.0918 1.01538 3.0918C1.24271 3.0918 1.46073 3.1821 1.62147 3.34285C1.78222 3.50359 1.87252 3.72161 1.87252 3.94894V19.4187C1.8404 19.9037 2.00102 20.3817 2.31946 20.749C2.6379 21.1162 3.08843 21.3429 3.5731 21.3798H18.4188C18.9035 21.3429 19.354 21.1162 19.6724 20.749C19.9909 20.3817 20.1515 19.9037 20.1194 19.4187V17.6769C20.1194 17.4496 20.2097 17.2316 20.3704 17.0708C20.5312 16.9101 20.7492 16.8198 20.9765 16.8198C21.2039 16.8198 21.4219 16.9101 21.5826 17.0708C21.7434 17.2316 21.8337 17.4496 21.8337 17.6769V19.4187C21.8652 20.3581 21.5238 21.2718 20.884 21.9604C20.2442 22.649 19.358 23.0566 18.4188 23.0941Z" fill="#0E4DAA"/>
<path d="M18.068 6.85703C17.8431 6.85706 17.6271 6.76863 17.4667 6.61084C17.3064 6.45305 17.2145 6.23854 17.2109 6.0136V4.11417C17.1948 3.70733 17.0186 3.32334 16.7206 3.04589C16.4226 2.76845 16.027 2.62004 15.62 2.63303H3.27718C2.92727 2.62004 2.58647 2.74625 2.32942 2.98402C2.07237 3.22179 1.92003 3.55173 1.90576 3.9016C1.92003 4.25146 2.07237 4.58141 2.32942 4.81918C2.58647 5.05695 2.92727 5.18316 3.27718 5.17017H10.82C11.0474 5.17017 11.2654 5.26047 11.4261 5.42122C11.5869 5.58197 11.6772 5.79998 11.6772 6.02731C11.6772 6.25464 11.5869 6.47266 11.4261 6.6334C11.2654 6.79415 11.0474 6.88445 10.82 6.88445H3.25661C2.85711 6.8908 2.46028 6.81828 2.08886 6.67103C1.71743 6.52379 1.37869 6.30471 1.09206 6.02636C0.805424 5.74801 0.576518 5.41584 0.41845 5.04888C0.260383 4.68193 0.17626 4.2874 0.170898 3.88788C0.185326 3.0834 0.518337 2.3175 1.09685 1.75827C1.67535 1.19905 2.4521 0.892183 3.25661 0.905026H15.5995C16.0289 0.895938 16.4559 0.971887 16.8559 1.1285C17.2559 1.28512 17.621 1.5193 17.9301 1.81758C18.2392 2.11586 18.4863 2.47233 18.657 2.86648C18.8278 3.26062 18.919 3.68466 18.9252 4.11417V6.0136C18.9216 6.23854 18.8297 6.45305 18.6693 6.61084C18.509 6.76863 18.293 6.85706 18.068 6.85703ZM21.5309 18.5142H16.7789C15.8507 18.5325 14.9531 18.1818 14.2833 17.539C13.6135 16.8962 13.2261 16.0138 13.2063 15.0856V13.8445C13.2261 12.9163 13.6135 12.0339 14.2833 11.3911C14.9531 10.7482 15.8507 10.3975 16.7789 10.4159H21.5789C21.8788 10.4168 22.1755 10.4767 22.4522 10.5923C22.7289 10.7079 22.9801 10.8769 23.1915 11.0895C23.4029 11.3022 23.5704 11.5544 23.6843 11.8318C23.7982 12.1092 23.8564 12.4063 23.8555 12.7062V16.265C23.8446 16.8713 23.5939 17.4485 23.1581 17.8701C22.7223 18.2917 22.1372 18.5233 21.5309 18.5142ZM16.7789 12.137C16.3064 12.1184 15.8458 12.2876 15.4976 12.6075C15.1494 12.9274 14.942 13.3721 14.9206 13.8445V15.1199C14.942 15.5922 15.1494 16.0369 15.4976 16.3569C15.8458 16.6768 16.3064 16.8459 16.7789 16.8273H21.5309C21.6807 16.8273 21.8244 16.7683 21.9309 16.663C22.0375 16.5578 22.0982 16.4148 22.1 16.265V12.7062C22.0959 12.5693 22.0395 12.4392 21.9423 12.3427C21.8909 12.289 21.8292 12.2461 21.7609 12.2167C21.6925 12.1872 21.619 12.1718 21.5446 12.1713L16.7789 12.137Z" fill="#0E4DAA"/>
<path d="M17.2527 15.3393C17.726 15.3393 18.1098 14.9555 18.1098 14.4821C18.1098 14.0088 17.726 13.625 17.2527 13.625C16.7793 13.625 16.3955 14.0088 16.3955 14.4821C16.3955 14.9555 16.7793 15.3393 17.2527 15.3393Z" fill="#0E4DAA"/>
</g>
<defs>
<clipPath id="clip0_648_540">
<rect width="24" height="24" fill="white"/>
</clipPath>
</defs>
</svg>
