<?xml version="1.0" encoding="UTF-8"?>
<svg id="Layer_1" xmlns="http://www.w3.org/2000/svg" version="1.1" xmlns:xlink="http://www.w3.org/1999/xlink" viewBox="0 0 1080 1080">
  <!-- Generator: Adobe Illustrator 29.0.1, SVG Export Plug-In . SVG Version: 2.1.0 Build 192)  -->
  <defs>
    <style>
      .st0 {
        fill: url(#linear-gradient2);
      }

      .st1 {
        fill: #fff;
      }

      .st2 {
        fill: url(#linear-gradient1);
      }

      .st3 {
        fill: url(#Degradado_sin_nombre_159);
      }

      .st4 {
        fill: #0e4baa;
      }

      .st5 {
        fill: url(#linear-gradient4);
      }

      .st6 {
        fill: #2874eb;
      }

      .st7 {
        fill: url(#linear-gradient5);
      }

      .st8 {
        fill: url(#linear-gradient3);
      }

      .st9 {
        fill: #061d41;
      }

      .st10 {
        fill: url(#Degradado_sin_nombre_422);
      }

      .st11 {
        fill: url(#linear-gradient6);
      }

      .st12 {
        fill: url(#Degradado_sin_nombre_135);
      }

      .st13 {
        fill: url(#linear-gradient);
      }
    </style>
    <linearGradient id="linear-gradient" x1="237.69" y1="507.33" x2="225.87" y2="474.88" gradientUnits="userSpaceOnUse">
      <stop offset=".56" stop-color="#092550"/>
      <stop offset="1" stop-color="#2773e8"/>
    </linearGradient>
    <linearGradient id="Degradado_sin_nombre_135" data-name="Degradado sin nombre 135" x1="299.09" y1="502.69" x2="283.86" y2="460.85" gradientUnits="userSpaceOnUse">
      <stop offset=".09" stop-color="#ffcea4"/>
      <stop offset="1" stop-color="#f750ed"/>
    </linearGradient>
    <linearGradient id="Degradado_sin_nombre_159" data-name="Degradado sin nombre 159" x1="204.62" y1="535.31" x2="298.88" y2="589.72" gradientUnits="userSpaceOnUse">
      <stop offset="0" stop-color="#5828ee"/>
      <stop offset=".47" stop-color="#9c2ef5"/>
      <stop offset=".68" stop-color="#bb30f9"/>
      <stop offset=".87" stop-color="#d032fb"/>
      <stop offset="1" stop-color="#d833fd"/>
    </linearGradient>
    <linearGradient id="Degradado_sin_nombre_422" data-name="Degradado sin nombre 422" x1="302.67" y1="545.58" x2="334.78" y2="527.04" gradientUnits="userSpaceOnUse">
      <stop offset="0" stop-color="#f750ed"/>
      <stop offset=".26" stop-color="#f86bdc"/>
      <stop offset=".8" stop-color="#fdb2b3"/>
      <stop offset="1" stop-color="#ffcea4"/>
    </linearGradient>
    <linearGradient id="linear-gradient1" x1="308.54" y1="563.65" x2="316.39" y2="563.65" gradientUnits="userSpaceOnUse">
      <stop offset="0" stop-color="#2773e8"/>
      <stop offset="1" stop-color="#092550"/>
    </linearGradient>
    <linearGradient id="linear-gradient2" x1="304.09" y1="580.47" x2="304.18" y2="580.47" xlink:href="#linear-gradient1"/>
    <linearGradient id="linear-gradient3" x1="272.01" y1="488.85" x2="309.65" y2="475.15" xlink:href="#linear-gradient1"/>
    <linearGradient id="linear-gradient4" x1="206.36" y1="556.02" x2="304.09" y2="556.02" xlink:href="#linear-gradient1"/>
    <linearGradient id="linear-gradient5" x1="284.21" y1="510.7" x2="304.31" y2="510.7" xlink:href="#linear-gradient1"/>
    <linearGradient id="linear-gradient6" x1="303.71" y1="580.74" x2="304.09" y2="580.74" xlink:href="#linear-gradient1"/>
  </defs>
  <path class="st1" d="M621.37,507.08c-4.1,0-7.04,2.27-8.14,6.08l15.54-.07c-.88-3.96-3.37-6.01-7.4-6.01ZM622.1,535.73c-11.58,0-19.94-7.77-19.94-18.62s8.28-18.62,19.13-18.62,17.96,7.48,17.96,17.81c0,1.32-.15,2.64-.51,4.47l-25.51.07c1.17,3.96,4.25,6.23,8.79,6.23,3.52,0,6.38-1.17,8.5-3.66l6.16,6.16c-3.52,4.1-8.58,6.16-14.59,6.16ZM586.24,535.73c-11.07,0-19.57-7.99-19.57-18.62s8.5-18.62,19.72-18.62c5.5,0,10.26,1.98,13.85,5.72l-7.18,7.18c-1.61-1.83-3.81-2.71-6.67-2.71-4.76,0-8.28,3.37-8.28,8.36s3.52,8.5,8.28,8.5c3,0,5.2-1.03,6.89-2.93l7.11,7.18c-3.74,3.88-8.43,5.94-14.15,5.94ZM538.74,534.93v-35.62h11.21v2.71c2.27-2.27,5.28-3.44,9.16-3.44,3.37,0,6.01,1.03,7.92,3.15l-6.67,8.43c-1.03-1.03-2.42-1.69-4.32-1.69-3.74,0-6.08,2.27-6.08,6.89v19.57h-11.21ZM515.06,535.73c-9.82,0-16.71-6.52-16.71-15.83v-20.6h11.21v20.52c0,3.66,2.05,5.94,5.5,5.94s5.42-2.2,5.42-5.94v-20.52h11.21v20.6c0,9.38-6.82,15.83-16.64,15.83ZM474.15,525.54c4.84,0,8.06-3.44,8.06-8.5s-3.3-8.36-8.06-8.36-8.06,3.44-8.06,8.43,3.3,8.43,8.06,8.43ZM474.15,535.73c-11.07,0-19.5-8.14-19.5-18.69s8.36-18.54,19.5-18.54,19.5,7.99,19.5,18.54-8.36,18.69-19.5,18.69ZM436.4,535.81c-6.38,0-12.61-2.57-16.27-6.6l6.38-6.45c2.35,2.57,5.64,4.03,9.45,4.03,2.64,0,4.1-.81,4.1-2.2,0-5.2-17.37-1.76-17.37-14.88,0-6.82,5.57-11.43,14.29-11.43,6.01,0,11.43,2.13,14.66,6.23l-6.38,6.45c-2.2-2.64-5.13-3.59-7.84-3.59-2.57,0-3.81.81-3.81,2.13,0,4.54,17.3,1.61,17.3,14.95,0,7.04-5.64,11.36-14.51,11.36ZM381.49,534.93v-35.62h11.21v2.86c2.49-2.27,6.01-3.59,9.97-3.59,7.84,0,13.56,6.23,13.56,13.56v22.79h-11.21v-20.3c0-3.74-2.57-6.23-6.08-6.23s-6.23,2.49-6.23,6.23v20.3h-11.21ZM361.04,534.93v-51.74h11.51v51.74h-11.51Z"/>
  <g>
    <path class="st1" d="M670.29,535.85c-3.58,0-6.86-.62-9.84-1.87-2.99-1.25-5.51-3.05-7.57-5.4l7.42-7.42c.93,1.37,2.29,2.49,4.08,3.34,1.79.86,3.68,1.29,5.69,1.29,1.81,0,3.38-.32,4.7-.95,1.32-.64,2.36-1.54,3.12-2.72.76-1.18,1.14-2.57,1.14-4.19s-.38-3-1.14-4.15c-.76-1.15-1.86-2.04-3.31-2.68-1.44-.64-3.17-.95-5.18-.95-.93,0-1.9.06-2.9.18-1,.12-1.85.31-2.53.55l5.07-6.39c1.37-.39,2.68-.72,3.93-.99,1.25-.27,2.41-.4,3.49-.4,2.64,0,5.02.62,7.12,1.87s3.78,3.01,5.03,5.29c1.25,2.28,1.87,4.98,1.87,8.12,0,3.43-.84,6.46-2.53,9.11-1.69,2.64-4.04,4.7-7.05,6.17-3.01,1.47-6.55,2.2-10.61,2.2ZM656.11,492.96v-9.77h33.42v6.39l-9.03,3.38h-24.38ZM663.97,510.88v-6.39l12.63-14.84,12.93-.07-13.15,14.98-12.41,6.32Z"/>
    <path class="st1" d="M713.84,535.85c-3.62,0-6.89-.81-9.81-2.42s-5.21-3.78-6.9-6.5-2.53-5.77-2.53-9.14c0-4.41,1.54-8.86,4.63-13.37l14.62-21.23h13l-16.23,22.62-4.33.37c.69-1.17,1.41-2.19,2.17-3.05.76-.86,1.73-1.52,2.9-1.98,1.17-.46,2.67-.7,4.48-.7,3.23,0,6.13.75,8.7,2.24,2.57,1.49,4.64,3.53,6.21,6.1,1.57,2.57,2.35,5.52,2.35,8.85s-.86,6.45-2.57,9.22c-1.71,2.77-4.02,4.96-6.9,6.57-2.89,1.62-6.15,2.42-9.77,2.42ZM713.84,525.79c1.52,0,2.89-.37,4.11-1.1s2.18-1.74,2.87-3.01c.68-1.27,1.03-2.69,1.03-4.26s-.34-3.05-1.03-4.3c-.69-1.25-1.64-2.23-2.87-2.94-1.22-.71-2.6-1.06-4.11-1.06s-2.95.36-4.15,1.06c-1.2.71-2.14,1.69-2.83,2.94-.69,1.25-1.03,2.68-1.03,4.3s.34,2.99,1.03,4.26c.69,1.27,1.63,2.28,2.83,3.01,1.2.73,2.58,1.1,4.15,1.1Z"/>
    <path class="st1" d="M759.38,535.85c-4.16,0-7.93-1.13-11.31-3.38-3.38-2.25-6.04-5.4-7.97-9.44-1.93-4.04-2.9-8.7-2.9-13.99s.95-10,2.86-13.99c1.91-3.99,4.53-7.1,7.86-9.33,3.33-2.23,7.1-3.34,11.31-3.34s8.05,1.11,11.38,3.34c3.33,2.23,5.96,5.35,7.9,9.36,1.93,4.02,2.9,8.69,2.9,14.03s-.97,10.01-2.9,14.03c-1.93,4.02-4.55,7.14-7.86,9.36-3.3,2.23-7.06,3.34-11.27,3.34ZM759.3,525.64c2.15,0,4.01-.62,5.58-1.87,1.57-1.25,2.78-3.11,3.64-5.58.86-2.47,1.29-5.5,1.29-9.07s-.43-6.66-1.29-9.11c-.86-2.45-2.07-4.3-3.64-5.54-1.57-1.25-3.45-1.87-5.66-1.87s-3.95.61-5.54,1.84c-1.59,1.22-2.8,3.06-3.64,5.51-.83,2.45-1.25,5.48-1.25,9.11s.42,6.66,1.25,9.11c.83,2.45,2.04,4.31,3.64,5.58,1.59,1.27,3.46,1.91,5.62,1.91Z"/>
  </g>
  <g>
    <path class="st1" d="M360.84,580.83v-22.54h3.21v22.54h-3.21ZM362.99,580.83v-2.66h7.16c1.36,0,2.43-.38,3.21-1.15.77-.77,1.16-1.69,1.16-2.78,0-.74-.17-1.4-.51-2-.34-.59-.84-1.07-1.48-1.41-.65-.35-1.4-.52-2.27-.52h-7.26v-2.66h6.79c1.14,0,2.04-.29,2.71-.86.67-.57,1.01-1.4,1.01-2.49s-.35-1.91-1.06-2.48c-.71-.57-1.64-.86-2.8-.86h-6.65v-2.66h6.72c1.55,0,2.84.27,3.87.8,1.03.53,1.82,1.23,2.35,2.09.53.87.8,1.82.8,2.86,0,1.21-.35,2.27-1.04,3.18-.69.91-1.71,1.62-3.05,2.14l.27-.97c1.52.52,2.71,1.3,3.56,2.35.85,1.05,1.28,2.29,1.28,3.72,0,1.19-.31,2.26-.92,3.22-.61.95-1.5,1.72-2.64,2.29-1.15.57-2.55.86-4.21.86h-6.99Z"/>
    <path class="st1" d="M394.4,581.16c-1.48,0-2.82-.35-4.02-1.06-1.21-.7-2.15-1.66-2.85-2.88-.69-1.21-1.04-2.58-1.04-4.09s.35-2.88,1.04-4.09c.69-1.21,1.64-2.18,2.83-2.89,1.19-.71,2.54-1.07,4.04-1.07,1.23,0,2.32.24,3.29.73.97.49,1.74,1.16,2.34,2.01.59.86.92,1.85.99,2.97v4.65c-.07,1.1-.39,2.09-.97,2.96-.58.87-1.35,1.54-2.32,2.03-.97.49-2.08.73-3.33.73ZM394.91,578.4c1.52,0,2.75-.49,3.68-1.48.93-.99,1.4-2.25,1.4-3.78,0-1.06-.21-1.99-.63-2.78-.42-.79-1.02-1.41-1.79-1.85-.77-.44-1.67-.67-2.69-.67s-1.93.23-2.71.68c-.78.45-1.4,1.08-1.84,1.87-.44.79-.67,1.7-.67,2.71s.22,1.95.67,2.74c.44.79,1.06,1.41,1.86,1.87.8.46,1.71.68,2.73.68ZM399.79,580.83v-4.16l.58-3.77-.58-3.74v-3.77h3.1v15.43h-3.1Z"/>
    <path class="st1" d="M413.33,580.83v-15.43h3.07v15.43h-3.07ZM424.79,580.83v-9c0-1.17-.39-2.13-1.16-2.89-.77-.76-1.77-1.14-3-1.14-.82,0-1.55.17-2.18.52-.64.35-1.14.82-1.5,1.43-.36.61-.55,1.3-.55,2.08l-1.26-.68c0-1.17.27-2.21.82-3.12.55-.91,1.31-1.63,2.29-2.16.98-.53,2.08-.8,3.31-.8s2.31.29,3.26.88c.94.58,1.69,1.35,2.23,2.29.55.94.82,1.94.82,3v9.58h-3.07Z"/>
    <path class="st1" d="M437.99,580.83v-23.19h3.07v23.19h-3.07ZM448.36,580.83l-7.57-7.89,7.5-7.54h3.72l-8.36,8.32.14-1.69,8.53,8.8h-3.96Z"/>
    <path class="st1" d="M461.9,562.32c-.57,0-1.03-.18-1.4-.54s-.55-.81-.55-1.35.18-.96.55-1.32.83-.54,1.4-.54,1.03.18,1.4.54.55.8.55,1.32-.18.99-.55,1.35-.83.54-1.4.54ZM460.36,580.83v-15.43h3.07v15.43h-3.07Z"/>
    <path class="st1" d="M473.94,580.83v-15.43h3.07v15.43h-3.07ZM485.4,580.83v-9c0-1.17-.39-2.13-1.16-2.89-.77-.76-1.77-1.14-3-1.14-.82,0-1.55.17-2.18.52-.64.35-1.14.82-1.5,1.43-.36.61-.55,1.3-.55,2.08l-1.26-.68c0-1.17.27-2.21.82-3.12.55-.91,1.31-1.63,2.29-2.16.98-.53,2.08-.8,3.31-.8s2.31.29,3.26.88c.94.58,1.69,1.35,2.23,2.29.55.94.82,1.94.82,3v9.58h-3.07Z"/>
    <path class="st1" d="M505.32,580.58c-1.48,0-2.8-.33-3.97-1.01-1.17-.67-2.1-1.6-2.78-2.78-.68-1.18-1.02-2.51-1.02-3.98s.34-2.79,1.02-3.95,1.61-2.08,2.78-2.76c1.17-.68,2.5-1.02,3.97-1.02,1.27,0,2.4.24,3.38.71s1.76,1.14,2.34,2c.58.86.89,1.86.94,3v4.09c-.07,1.13-.39,2.12-.97,2.97-.58.86-1.36,1.52-2.34,2-.98.48-2.09.71-3.34.71ZM505.32,587.62c-1.66,0-3.13-.29-4.42-.88s-2.31-1.41-3.09-2.47l1.98-1.92c.66.8,1.44,1.41,2.35,1.83.91.42,1.99.63,3.24.63,1.66,0,2.97-.42,3.94-1.25.97-.83,1.45-1.96,1.45-3.36v-3.83l.55-3.48-.55-3.44v-4.06h3.07v14.81c0,1.47-.36,2.76-1.07,3.87-.72,1.1-1.72,1.97-3,2.6-1.29.63-2.77.94-4.45.94ZM505.93,577.81c1,0,1.88-.21,2.64-.62.76-.41,1.35-.99,1.76-1.74.41-.75.61-1.62.61-2.61s-.21-1.87-.63-2.62c-.42-.75-1.01-1.33-1.76-1.75-.75-.42-1.64-.63-2.66-.63s-1.92.21-2.69.63c-.77.42-1.38,1.01-1.82,1.75s-.67,1.61-.67,2.58.22,1.84.67,2.6c.44.76,1.06,1.35,1.84,1.77.78.42,1.69.63,2.71.63Z"/>
    <path class="st1" d="M548.67,581.16c-1.71,0-3.29-.3-4.74-.89-1.46-.59-2.72-1.42-3.8-2.48-1.08-1.06-1.92-2.3-2.51-3.7-.59-1.41-.89-2.91-.89-4.52s.29-3.14.89-4.55c.59-1.41,1.43-2.64,2.51-3.69,1.08-1.05,2.34-1.87,3.79-2.47,1.44-.6,3.02-.89,4.72-.89,1.86,0,3.5.3,4.91.91,1.41.61,2.66,1.43,3.75,2.47l-2.22,2.11c-.75-.8-1.67-1.43-2.75-1.88-1.08-.45-2.31-.68-3.7-.68-1.25,0-2.4.21-3.45.63-1.05.42-1.96,1.02-2.73,1.8-.77.78-1.37,1.7-1.79,2.76-.42,1.06-.63,2.22-.63,3.48s.21,2.42.63,3.48c.42,1.06,1.02,1.98,1.79,2.76.77.78,1.68,1.38,2.73,1.8,1.05.42,2.19.63,3.45.63,1.48,0,2.76-.23,3.85-.7,1.09-.47,2.01-1.1,2.76-1.9l2.22,2.08c-1.09,1.08-2.37,1.93-3.84,2.53-1.47.61-3.12.91-4.96.91Z"/>
    <path class="st1" d="M573.67,581.16c-1.59,0-3.02-.36-4.3-1.07s-2.29-1.68-3.04-2.91c-.75-1.22-1.13-2.59-1.13-4.11s.38-2.84,1.13-4.04,1.76-2.16,3.04-2.88c1.27-.71,2.71-1.07,4.3-1.07s3,.35,4.28,1.06,2.3,1.66,3.05,2.88,1.13,2.57,1.13,4.06-.38,2.89-1.13,4.11c-.75,1.22-1.77,2.19-3.05,2.91s-2.71,1.07-4.28,1.07ZM573.67,578.33c1.02,0,1.93-.23,2.73-.68.8-.45,1.42-1.08,1.88-1.87.46-.79.68-1.69.68-2.71s-.23-1.88-.7-2.66c-.47-.78-1.09-1.39-1.88-1.83-.79-.44-1.69-.67-2.71-.67s-1.93.22-2.73.67c-.8.44-1.42,1.06-1.88,1.83s-.68,1.67-.68,2.66.23,1.92.68,2.71c.46.79,1.08,1.41,1.88,1.87.8.46,1.71.68,2.73.68Z"/>
    <path class="st1" d="M591.54,580.83v-15.43h3.07v15.43h-3.07ZM603,580.83v-9c0-1.17-.39-2.13-1.16-2.89-.77-.76-1.77-1.14-3-1.14-.82,0-1.55.17-2.18.52-.64.35-1.14.82-1.5,1.43s-.55,1.3-.55,2.08l-1.26-.68c0-1.17.27-2.21.82-3.12.55-.91,1.31-1.63,2.29-2.16s2.08-.8,3.31-.8,2.31.29,3.26.88c.94.58,1.69,1.35,2.23,2.29.55.94.82,1.94.82,3v9.58h-3.07Z"/>
    <path class="st1" d="M621.35,581.16c-.91,0-1.77-.11-2.58-.34-.81-.23-1.55-.55-2.23-.97-.68-.42-1.27-.93-1.77-1.51l1.98-1.88c.59.69,1.27,1.21,2.05,1.54.77.34,1.64.5,2.59.5s1.69-.16,2.22-.47c.52-.31.78-.75.78-1.32s-.21-1-.63-1.32-.96-.57-1.62-.78c-.66-.21-1.36-.41-2.1-.62-.74-.21-1.44-.47-2.1-.8-.66-.32-1.2-.77-1.62-1.33s-.63-1.31-.63-2.24.24-1.74.72-2.42c.48-.68,1.14-1.21,2-1.58.85-.37,1.88-.55,3.09-.55,1.27,0,2.4.21,3.39.63.99.42,1.8,1.06,2.44,1.9l-1.98,1.88c-.46-.56-1.02-1-1.69-1.3-.67-.3-1.43-.46-2.27-.46-.89,0-1.56.15-2.03.44-.47.29-.7.7-.7,1.22s.2.92.61,1.2c.41.28.95.52,1.62.71.67.2,1.37.4,2.1.6s1.42.48,2.08.83c.66.35,1.2.81,1.62,1.4.42.58.63,1.35.63,2.31,0,1.45-.54,2.6-1.62,3.44-1.08.84-2.53,1.27-4.35,1.27Z"/>
    <path class="st1" d="M643.28,581.16c-1.34,0-2.54-.29-3.6-.86-1.06-.57-1.88-1.37-2.47-2.39-.59-1.02-.89-2.2-.89-3.54v-8.97h3.07v8.84c0,.84.15,1.58.46,2.19s.76,1.09,1.35,1.41c.59.33,1.29.49,2.08.49,1.21,0,2.15-.36,2.83-1.09.68-.73,1.02-1.73,1.02-3v-8.84h3.07v8.97c0,1.34-.3,2.52-.89,3.54-.59,1.02-1.4,1.81-2.44,2.39-1.04.57-2.23.86-3.6.86Z"/>
    <path class="st1" d="M660.3,580.83v-23.19h3.07v23.19h-3.07Z"/>
    <path class="st1" d="M672.34,568.07v-2.66h11.05v2.66h-11.05ZM676.33,580.83v-21.89h3.07v21.89h-3.07Z"/>
    <path class="st1" d="M698.74,581.16c-1.48,0-2.82-.35-4.02-1.06-1.21-.7-2.15-1.66-2.85-2.88-.69-1.21-1.04-2.58-1.04-4.09s.35-2.88,1.04-4.09c.69-1.21,1.64-2.18,2.83-2.89,1.19-.71,2.54-1.07,4.04-1.07,1.23,0,2.33.24,3.29.73.97.49,1.74,1.16,2.34,2.01.59.86.92,1.85.99,2.97v4.65c-.07,1.1-.39,2.09-.97,2.96-.58.87-1.35,1.54-2.32,2.03-.97.49-2.08.73-3.33.73ZM699.25,578.4c1.52,0,2.75-.49,3.68-1.48s1.4-2.25,1.4-3.78c0-1.06-.21-1.99-.63-2.78-.42-.79-1.02-1.41-1.79-1.85-.77-.44-1.67-.67-2.69-.67s-1.93.23-2.71.68c-.79.45-1.4,1.08-1.84,1.87-.44.79-.67,1.7-.67,2.71s.22,1.95.67,2.74c.44.79,1.06,1.41,1.86,1.87s1.71.68,2.73.68ZM704.12,580.83v-4.16l.58-3.77-.58-3.74v-3.77h3.1v15.43h-3.1Z"/>
    <path class="st1" d="M717.67,580.83v-15.43h3.07v15.43h-3.07ZM729.13,580.83v-9c0-1.17-.39-2.13-1.16-2.89-.77-.76-1.77-1.14-3-1.14-.82,0-1.55.17-2.18.52-.64.35-1.14.82-1.5,1.43s-.55,1.3-.55,2.08l-1.26-.68c0-1.17.27-2.21.82-3.12.55-.91,1.31-1.63,2.29-2.16s2.08-.8,3.31-.8,2.31.29,3.26.88c.94.58,1.69,1.35,2.23,2.29.55.94.82,1.94.82,3v9.58h-3.07Z"/>
    <path class="st1" d="M749.73,581.16c-1.59,0-3.03-.36-4.31-1.07-1.29-.71-2.3-1.68-3.04-2.91-.74-1.22-1.11-2.58-1.11-4.08s.37-2.88,1.11-4.09c.74-1.21,1.75-2.17,3.04-2.88,1.28-.7,2.72-1.06,4.31-1.06,1.25,0,2.41.22,3.48.67,1.07.44,1.99,1.09,2.76,1.93l-2.05,1.95c-.5-.56-1.11-.99-1.83-1.28-.72-.29-1.51-.44-2.37-.44-1.02,0-1.93.22-2.73.67-.8.44-1.42,1.06-1.88,1.83s-.68,1.68-.68,2.7.23,1.92.68,2.7c.46.78,1.08,1.4,1.88,1.85.8.46,1.71.68,2.73.68.86,0,1.65-.15,2.37-.44.72-.29,1.34-.72,1.86-1.28l2.01,1.95c-.75.82-1.67,1.46-2.75,1.92-1.08.46-2.25.68-3.5.68Z"/>
    <path class="st1" d="M770.29,580.96l-7.03-15.56h3.41l5.22,12.18h-1.09l5.49-12.18h3.41l-7.57,15.56h-1.84ZM765.65,587.3l4.77-9.32,1.71,2.99-3.07,6.33h-3.41Z"/>
  </g>
  <path class="st6" d="M267.68,477.41v-9.76s1.24-1.49,1.44-1.44c14.92,3.72,30.12,9.99,41.33,22.26,2.14,2.34,6.52,7.7,6.52,7.7l-1.44,1.44-7.9.21c-1.02-1.36-2.11-2.7-3.29-3.98-10.03-10.97-23.58-16.57-36.66-16.44Z"/>
  <path class="st9" d="M316.39,573.14l-7.86-15.2c.22-.24-.25-3.58,0-3.79,11.75-9.9,13.45-27.69,6.53-43.63v-3.79l6.88,1.87c10.49,21.63,8.64,46.83-5.56,64.53Z"/>
  <path class="st6" d="M226.08,511.98l-23.04,4.37c1.77-12.66,7.84-25.85,17.66-34.8,9.31-8.49,23.67-14.64,35.74-15.62l3.46,11.1c-6.71,1.52-15.82,6.14-21.12,10.99-6.91,6.32-8.4,13.66-9.9,22.52-.03.19-2.78,1.26-2.81,1.45Z"/>
  <path class="st13" d="M228.88,510.53l-22.75,3.03c1.77-12.66,7.55-24.51,17.37-33.46,9.31-8.49,20.87-13.19,32.94-14.18l3.46,11.1c-6.71,1.52-13.01,4.69-18.31,9.55-7.06,6.45-11.29,14.9-12.71,23.96Z"/>
  <path class="st12" d="M269.12,475.97v-9.75c15.04,1.87,29.94,9.26,41.43,21.84,2.38,2.6,4.52,5.32,6.42,8.13l-7.9.21c-1.02-1.36-2.11-2.7-3.29-3.98-10.03-10.97-23.58-16.57-36.66-16.44Z"/>
  <path class="st9" d="M294.55,567.47l9.63,13.08-1.92,4.21c-24.09,16.09-58.56,11.06-80.56-13.01-9.47-10.36-15.23-22.72-17.26-35.22l1.92-4.22,21.22-.3c1.82,8.27,5.89,16.33,12.18,23.21,14.86,16.27,37.44,20.74,54.79,12.25Z"/>
  <path class="st3" d="M296.47,563.25l7.71,17.29c-24.09,16.09-58.56,11.06-80.56-13.01-9.47-10.36-15.23-22.72-17.26-35.22l23.13-4.52c1.82,8.27,5.89,16.33,12.18,23.21,14.86,16.27,37.44,20.74,54.79,12.25Z"/>
  <path class="st10" d="M316.39,569.35l-7.86-15.2c11.4-12.61,13.59-31.17,6.53-47.42l6.88-1.92c10.49,21.63,8.64,46.83-5.56,64.53Z"/>
  <polygon class="st9" points="206.13 513.57 203.03 516.35 226.08 511.98 228.88 510.53 206.13 513.57"/>
  <polygon class="st9" points="309.06 496.39 307.63 497.83 315.53 497.62 316.96 496.18 309.06 496.39"/>
  <polygon class="st2" points="316.39 569.35 316.39 573.14 308.54 557.94 308.54 554.15 316.39 569.35"/>
  <path class="st0" d="M304.18,580.54s-.06.04-.09.06v-.26l.09.2Z"/>
  <path class="st4" d="M316.39,569.35l-7.86-15.2c11.4-12.61,13.59-31.17,6.53-47.42l6.88-1.92c10.49,21.63,8.64,46.83-5.56,64.53Z"/>
  <path class="st8" d="M269.12,475.97v-9.75c15.04,1.87,29.94,9.26,41.43,21.84,2.38,2.6,4.52,5.32,6.42,8.13l-7.9.21c-1.02-1.36-2.11-2.7-3.29-3.98-10.03-10.97-23.58-16.57-36.66-16.44Z"/>
  <g>
    <path class="st5" d="M304.09,522.18v58.42c-.13.08-.25.17-.38.24-24.06,15.72-58.23,10.6-80.09-13.31-9.47-10.36-15.24-22.72-17.26-35.22l23.13-4.52c1.82,8.27,5.89,16.33,12.18,23.21,11.73,12.83,28.24,18.32,43.21,15.9v-26.61c0-6.45,4.81-18.11,19.21-18.11Z"/>
    <ellipse class="st7" cx="294.26" cy="510.7" rx="10.05" ry="9.72"/>
    <path class="st11" d="M304.09,580.6v.28c-.12,0-.25-.02-.38-.04.13-.07.25-.16.38-.24Z"/>
  </g>
</svg>