<svg width="6516" height="6514" viewBox="0 0 6516 6514" fill="none" xmlns="http://www.w3.org/2000/svg">
<path d="M5.38728 3C2174.6 4.515 4343.81 4.515 6513.02 3C6513.02 2172.21 6513.02 4341.42 6513.02 6510.63C4343.81 6511.39 2174.6 6511.39 5.38728 6510.63C5.38728 4341.42 0.0158995 2172.21 5.38728 3Z" stroke="#4A3AFF" stroke-width="5" stroke-miterlimit="10"/>
<path d="M5.42188 6260.67C603.298 6272.96 1182.99 6133.72 1783.97 6198.69C2278.55 6252.3 2764.66 6253.65 3261.1 6274.72C3742.25 6295.38 4214.73 6285.05 4694.84 6254.06C5299.74 6215.32 5907.54 6262.94 6512.85 6260.26" stroke="#4A3AFF" stroke-width="5" stroke-miterlimit="10"/>
<path d="M5.42188 6010.17C337.105 5995.39 627.263 5864.93 944.277 5784.57C1232.89 5711.54 1502.8 5732.3 1785.62 5817.83C2044.69 5896.23 2289.5 5993.43 2562.72 6010.48C2798.13 6025.45 3030.96 6031.96 3266.16 6058.51C3742.46 6112.22 4144.17 6095.7 4610.45 5997.36C5225.89 5867.62 5890.39 6004.28 6513.16 6010.06" stroke="#4A3AFF" stroke-width="5" stroke-miterlimit="10"/>
<path d="M5.42188 5759.58C360.656 5709.58 627.986 5496.48 946.55 5352.9C1257.57 5212.83 1493.09 5255.7 1787.58 5411.27C2039.83 5544.52 2274.11 5714.13 2562.3 5757C2798.44 5792.12 3034.98 5803.79 3271.53 5849.24C3500.85 5893.35 3743.18 5952.54 3978.8 5937.25C4183.94 5923.72 4330 5822.9 4508.91 5740.26C4764.67 5622.2 5028.39 5651.64 5303.57 5672.19C5706.42 5702.35 6108.14 5748.53 6512.13 5759.68" stroke="#4A3AFF" stroke-width="5" stroke-miterlimit="10"/>
<path d="M5.42188 5508.67C384.724 5427.27 630.671 5140.22 948.616 4941.68C1272.65 4739.43 1494.22 4806.47 1789.34 5022.56C2032.29 5200.44 2258.3 5438.74 2562.82 5504.23C2799.47 5555.05 3039.53 5572.1 3277.21 5634.59C3499.2 5692.85 3754.03 5783.23 3988.09 5757.31C4192.31 5734.58 4275.88 5601.53 4420.18 5482.85C4643.2 5299.5 4927.98 5361.37 5196.45 5386.99C5635.25 5428.31 6071.98 5491.11 6512.85 5508.98" stroke="#4A3AFF" stroke-width="5" stroke-miterlimit="10"/>
<path d="M5.42188 5259.02C404.763 5173.7 633.46 4830.86 949.752 4602.16C1272.65 4368.61 1505.48 4451.87 1790.27 4696.78C2026.92 4900.27 2244.77 5183.41 2562.82 5255.61C2802.36 5309.94 3040.05 5329.57 3279.8 5403.22C3499.2 5470.67 3758.78 5575.21 3994.29 5545.25C4211.21 5517.67 4247.68 5369.65 4370.7 5226.89C4560.46 5006.15 4880.05 5090.75 5136.23 5117.81C5595.17 5166.16 6051.43 5240.53 6512.95 5259.12" stroke="#4A3AFF" stroke-width="5" stroke-miterlimit="10"/>
<path d="M5.42188 5008.52C397.016 4916.48 665.482 4612.28 996.235 4403.83C1322.96 4197.86 1540.91 4247.02 1829.01 4490.08C2056.26 4681.69 2257.68 4936.01 2561.17 5003.67C2800.3 5056.97 3023.42 5076.7 3259.96 5162.33C3473.06 5239.39 3718.6 5343.61 3952.04 5314.28C4170.1 5286.9 4245.2 5125.14 4387.64 4988.38C4605.08 4779.82 4888.94 4849.24 5167.11 4877.23C5615.93 4922.27 6062.38 4989.72 6513.47 5008.83" stroke="#4A3AFF" stroke-width="5" stroke-miterlimit="10"/>
<path d="M5.42188 4758.31C641.827 4652.53 1317.28 3924.81 1939.74 4376.11C2147.16 4527.34 2297.76 4702.94 2561.89 4754.59C2793.68 4800.35 2976.11 4832.06 3193.44 4940.52C3388.05 5037.62 3596.29 5141.95 3820.75 5121.08C4067.74 5098.25 4231.98 4911.18 4426.07 4781.65C4696.08 4601.71 4942.96 4630.63 5260.28 4656.97C5677.91 4691.78 6093.68 4744.46 6512.85 4758.51" stroke="#4A3AFF" stroke-width="5" stroke-miterlimit="10"/>
<path d="M5.42188 4508.36C443.706 4483.47 861.951 4350.11 1290.83 4266.96C1557.34 4215.31 1834.58 4164.9 2082.18 4302.08C2253.34 4396.9 2361.91 4479.85 2564.58 4507.84C2786.25 4538.83 2924.15 4591.72 3106.26 4728.07C3273.18 4853.06 3434.84 4957.39 3650.83 4946.02C3946.26 4930.53 4218.96 4720.01 4473.07 4589.34C5081.69 4276.46 5855.99 4497.51 6512.95 4508.26" stroke="#4A3AFF" stroke-width="5" stroke-miterlimit="10"/>
<path d="M5.42188 4258.8C486.574 4271.61 966.073 4227.81 1446.71 4209.73C1694 4200.54 1969.9 4175.44 2216.36 4218C2332.3 4239.43 2449.46 4253.61 2567.16 4260.45C2778.71 4271.61 2888.51 4355.9 3024.96 4513.11C3156.77 4664.96 3280.83 4775.28 3491.65 4766.19C3844.41 4750.9 4199.33 4526.44 4518.11 4393.19C5155.13 4126.89 5839.57 4258.8 6513.06 4258.08" stroke="#4A3AFF" stroke-width="5" stroke-miterlimit="10"/>
<path d="M5.42188 4007.86C519.422 4030.49 1033.21 4057.55 1547.11 4082.55C1791.41 4094.32 2061.63 4141.53 2301.89 4072.22C2609.82 3983.69 2783.36 3994.54 2974.87 4284.08C3086.94 4453.38 3173.4 4566.59 3391.35 4558.64C3780.88 4544.48 4191.28 4309.18 4550.64 4175.1C5187.98 3937.52 5843.7 4010.65 6513.26 4007.45" stroke="#4A3AFF" stroke-width="5" stroke-miterlimit="10"/>
<path d="M5.42188 3757.72C762.89 3793.56 1556.72 3881.67 2312.74 3813.19C2616.33 3785.81 2808.56 3761.54 2995.84 4038.68C3103.47 4196.83 3197.26 4298.47 3402.1 4291.24C3787.7 4277.71 4202.95 4050.97 4562.01 3924.54C5198 3701.01 5847.63 3757.41 6513.06 3757.41" stroke="#4A3AFF" stroke-width="5" stroke-miterlimit="10"/>
<path d="M5.42188 3507.42C512.811 3514.34 1017.72 3455.77 1523.87 3427.88C1764.65 3414.66 2112.66 3349.58 2334.02 3484.17C2489.58 3578.69 2558.89 3644.9 2751.64 3664.43C2914.23 3680.95 2998.83 3704.3 3127.64 3800.05C3549.4 4114.18 4147.58 3777.84 4595.37 3642.11C5220.1 3452.46 5866.63 3507.11 6513.06 3507.11" stroke="#4A3AFF" stroke-width="5" stroke-miterlimit="10"/>
<path d="M5.42188 3256.81C506.097 3221.17 990.141 3077.49 1481.83 2984.52C1834.17 2917.89 2099.33 2861.8 2370.17 3128.2C2551.25 3306.29 2700.72 3551.72 2971.46 3595.31C3088.18 3614.42 3205.42 3585.91 3318.43 3566.69C3436.8 3546.55 3546.2 3541.08 3667.26 3534.78C3999.46 3517.42 4323.81 3415.06 4646.61 3342.23C5255.22 3205.16 5893.28 3256.81 6513.06 3256.81" stroke="#4A3AFF" stroke-width="5" stroke-miterlimit="10"/>
<path d="M5.42188 3006.23C504.237 2926.8 962.871 2698.93 1439.68 2541.4C1609.61 2485.21 1808.86 2400.71 1987.87 2445.03C2161 2487.9 2293.94 2644.39 2406.53 2772.47C2604.24 2997.45 3241.89 3941.06 3509.53 3333.58C3579.87 3174.19 3652.69 3148.37 3823.85 3133.91C4117.11 3109.01 4405.82 3079.78 4698.15 3042.59C5295.51 2966.57 5911.98 3006.75 6513.06 3006.75" stroke="#4A3AFF" stroke-width="5" stroke-miterlimit="10"/>
<path d="M5.42188 2755.93C509.195 2657.18 944.174 2357.11 1409.52 2152.89C1578.31 2078.83 1768.89 1979.67 1953.27 2028.94C2149.53 2081.21 2305.61 2296.06 2427.81 2443.77C2637.61 2696.95 3472.03 3960.47 3641.43 3094.74C3681.31 2890.63 3714.36 2798.29 3932.93 2778.25C4193.96 2754.39 4468.63 2768.74 4731.62 2759.86C5324.43 2740.03 5920.04 2756.24 6513.16 2756.24" stroke="#4A3AFF" stroke-width="5" stroke-miterlimit="10"/>
<path d="M5.42188 2505.76C515.187 2412.79 948.616 2089.78 1414.27 1877.31C1582.54 1800.45 1771.06 1701.7 1956.99 1750.25C2158.52 1803.14 2313.05 2022.75 2435.77 2175.52C2634.09 2422.5 3520.37 3763.69 3660.65 2841.16C3692.87 2629.09 3735.23 2525.59 3955.87 2505.96C4210.59 2483.24 4479.16 2505.96 4735.44 2505.96H6513.06" stroke="#4A3AFF" stroke-width="5" stroke-miterlimit="10"/>
<path d="M5.42188 2255.47C532.85 2164.88 1004.81 1877.51 1499.6 1684.65C1670.34 1618.13 1874.04 1519.38 2058.53 1568.55C2240.12 1617.3 2365.52 1798.49 2469.96 1942.27C2712.7 2276.43 3233.42 3262.19 3595.26 2536.22C3686.26 2353.7 3746.9 2272.51 3955.97 2255.67C4211.63 2235.01 4478.65 2255.67 4735.54 2255.67H6513.06" stroke="#4A3AFF" stroke-width="5" stroke-miterlimit="10"/>
<path d="M5.42188 2005.28C567.661 1934.62 1092.4 1686.71 1632.02 1524.23C2019.79 1407.2 2293.11 1319.19 2514.58 1711.3C2637.61 1929.56 2735.74 2323.74 3020.11 2382.72C3204.7 2421.25 3355.82 2302.36 3487.63 2195.96C3841 1910.97 4303.04 2005.18 4735.34 2005.18H6513.06" stroke="#4A3AFF" stroke-width="5" stroke-miterlimit="10"/>
<path d="M5.42188 1755.08C617.553 1706.02 1206.65 1493.02 1804.21 1362.56C2075.99 1303.06 2468.3 1152.25 2565.92 1503.25C2608.17 1655.3 2576.25 1858.69 2745.45 1936.47C2914.64 2014.25 3204.49 1903.42 3372.86 1850.43C3804.95 1714.49 4256.77 1755.39 4705.38 1755.39H6513.06" stroke="#4A3AFF" stroke-width="5" stroke-miterlimit="10"/>
<path d="M5.42188 1504.93C638.935 1469.71 1258.09 1299.27 1882.2 1193.39C2015.66 1170.77 2621.8 981.741 2600.52 1248.86C2588.64 1398.54 2428.43 1478.39 2623.76 1551C2796.78 1615.46 3103.99 1541.5 3285.58 1527.04C4351.7 1442.34 5443.53 1504.73 6512.75 1504.73" stroke="#4A3AFF" stroke-width="5" stroke-miterlimit="10"/>
<path d="M5.42188 1254.43C658.355 1208.25 1301.68 1062.5 1948.52 966.542C2119.99 941.028 2356.85 873.575 2535.14 905.39C2647.62 925.533 2648.24 933.28 2607.44 1023.56C2563.44 1120.35 2418.2 1154.02 2522.53 1246.27C2581.72 1298.64 2855.66 1254.43 2933.44 1254.43H6513.06" stroke="#4A3AFF" stroke-width="5" stroke-miterlimit="10"/>
<path d="M5.90234 1004.02C602.332 962.082 1190.19 842.775 1782.07 759.932C1889.71 744.954 2487.17 581.643 2504.01 794.742C2514.34 923.862 2369.72 944.625 2570.32 1002.06C2767.52 1058.66 3054.27 1004.12 3259.62 1004.12H6513.02" stroke="#4A3AFF" stroke-width="5" stroke-miterlimit="10"/>
<path d="M5.42188 753.851C530.578 727.097 1048.71 635.164 1571.08 575.562C1782.01 551.494 2117.72 466.792 2305.2 610.786C2385.56 672.763 2396.93 727.51 2513.13 748.376C2747 790.314 3020.63 753.851 3259.03 753.851H6513.06" stroke="#4A3AFF" stroke-width="5" stroke-miterlimit="10"/>
<path d="M5.42188 503.673C669.511 491.691 1410.24 271.981 2068.03 421.037C2467.58 511.524 2849.15 503.673 3259.45 503.673H6513.06" stroke="#4A3AFF" stroke-width="5" stroke-miterlimit="10"/>
<path d="M5.42188 253.396C629.019 259.077 1250.86 193.587 1875.08 226.849C2337.43 251.433 2796.99 253.292 3260.07 253.292H6513.06" stroke="#4A3AFF" stroke-width="5" stroke-miterlimit="10"/>
<path d="M6262.73 3V3256.82C6262.73 3747.47 6256.22 4230.38 6221.41 4719.69C6178.75 5320.36 6271.2 5911.42 6262.73 6510.74" stroke="#4A3AFF" stroke-width="5" stroke-miterlimit="10"/>
<path d="M6012.42 3V3256.82C6012.42 3488.41 6021.72 3721.65 6012.42 3953.34C6002.1 4207.76 5934.64 4444.31 5883.2 4691.6C5752.22 5321.7 5993.73 5885.49 6012.32 6510.63" stroke="#4A3AFF" stroke-width="5" stroke-miterlimit="10"/>
<path d="M5762.14 3V3256.82C5762.14 3486.13 5781.25 3724.23 5760.29 3952.72C5736.94 4208.17 5618.15 4423.13 5528.28 4657.92C5276.76 5315.3 5702.13 5859.87 5762.04 6510.63" stroke="#4A3AFF" stroke-width="5" stroke-miterlimit="10"/>
<path d="M5511.85 3V3256.82C5511.85 3483.24 5539.12 3727.74 5508.55 3952.2C5473.12 4212.82 5308.67 4406.71 5185.44 4628.17C5023.06 4920.6 5013.45 5136.39 5131.21 5452.58C5263.12 5808.22 5459.38 6129.58 5511.54 6510.63" stroke="#4A3AFF" stroke-width="5" stroke-miterlimit="10"/>
<path d="M5261.53 3V3256.82C5261.53 3482 5291.8 3729.6 5259.05 3952.51C5219.59 4221.91 5028.39 4396.69 4884.19 4611.85C4444.57 5268.5 5170.84 5851.4 5261.43 6510.63" stroke="#4A3AFF" stroke-width="5" stroke-miterlimit="10"/>
<path d="M5011.34 3C5011.34 1090.5 5055.45 2189.26 4992.33 3275.1C4978.8 3508.65 5001.22 3758.73 4968.57 3989.39C4933.04 4240.3 4772.31 4429.43 4653.11 4642.84C4490.63 4933.1 4477.51 5147.75 4603.22 5460.63C4745.46 5813.7 4955.46 6127.1 5011.03 6510.43" stroke="#4A3AFF" stroke-width="5" stroke-miterlimit="10"/>
<path d="M4760.92 3C4760.92 1099.9 4859.36 2249.99 4680.25 3334.6C4600.92 3815.03 4573.96 4276.55 4450.62 4748.31C4377.38 5028.65 4361.37 5259.83 4453.82 5540.27C4561.56 5867.31 4721.67 6163.15 4760.82 6510.53" stroke="#4A3AFF" stroke-width="5" stroke-miterlimit="10"/>
<path d="M4510.64 3V1780.72C4510.64 2040.2 4518.7 2301.13 4510.64 2560.29C4501.66 2853.24 4424.29 3130.9 4348.78 3413C4274.2 3691.9 4186.61 3973.79 4187.95 4264.78C4188.88 4474.16 4231.23 4680.65 4259.02 4887.34C4292.69 5138.25 4279.68 5394.83 4332.98 5642.43C4396.19 5935.07 4495.98 6208.29 4510.75 6510.12" stroke="#4A3AFF" stroke-width="5" stroke-miterlimit="10"/>
<path d="M4260.34 3V1780.72C4260.34 2039.48 4273.25 2302.05 4260.34 2560.29C4244.33 2882.37 4126.78 3184.1 4022.76 3486.34C3925.77 3767.3 3760.39 4106.12 3789.42 4411.25C3811.31 4641.19 3960.58 4821.65 4064.91 5017.6C4196.61 5265.51 4184.01 5467.76 4204.97 5738.71C4225.01 5997.46 4264.47 6250.12 4260.96 6510.84" stroke="#4A3AFF" stroke-width="5" stroke-miterlimit="10"/>
<path d="M4010.04 3V1780.72C4010.04 2038.96 4023.88 2302.36 4010.04 2560.29C3991.86 2901.17 3848.79 3216.53 3725.56 3531.27C3615.65 3811.83 3403.79 4187.62 3445.11 4500.81C3479.41 4757.09 3701.8 4910.69 3853.34 5096.62C4160.85 5473.55 4023.57 6053.96 4010.24 6510.63" stroke="#4A3AFF" stroke-width="5" stroke-miterlimit="10"/>
<path d="M3759.77 3C3759.77 595.608 3736.32 1193.28 3765.14 1785.16C3778.16 2051.36 3806.46 2320.65 3792.1 2587.25C3774.13 2927.2 3630.55 3229.24 3496.57 3537.58C3376.44 3814.2 3163.24 4173.26 3206.42 4487.9C3241.95 4746.65 3461.76 4901.08 3613.92 5091.04C3927.01 5481.91 3765.35 6044.56 3759.77 6510.63" stroke="#4A3AFF" stroke-width="5" stroke-miterlimit="10"/>
<path d="M3509.5 3C3509.5 603.149 3454.13 1232.22 3561.87 1824.52C3614.86 2115.71 3704.11 2417.54 3695.43 2715.75C3686.44 3026.36 3527.16 3285.22 3378 3549.76C3238.76 3796.54 3037.12 4085.15 3065.12 4383.57C3088.15 4632.92 3268.82 4817.41 3391.53 5021.73C3652.35 5455.57 3514.56 6026.07 3509.5 6510.74" stroke="#4A3AFF" stroke-width="5" stroke-miterlimit="10"/>
<path d="M3259.19 3C3259.19 630.625 3192.47 1280.25 3384.08 1885.05C3486.14 2206.92 3657.19 2558.12 3665.77 2900.03C3672.69 3171.7 3483.86 3371.17 3318.59 3566.7C3153.32 3762.24 2969.35 3959.23 2971 4231.72C2972.55 4475.6 3103.32 4696.55 3185.03 4918.64C3366.52 5412.81 3261.88 5993.54 3259.19 6510.63" stroke="#4A3AFF" stroke-width="5" stroke-miterlimit="10"/>
<path d="M3008.88 3V955.387C3008.88 1345.64 3070.85 1626.81 3225.8 1991.96C3368.76 2327.16 3605.62 2699.64 3631.03 3067.27C3649.52 3329.85 3451.81 3449.46 3259.16 3583.75C3033.98 3740.76 2876.97 3851.59 2877.69 4148.16C2878.31 4364.25 2936.88 4576.52 2973.45 4788.59C3070.65 5350.21 3009.19 5942.51 3008.88 6510.63" stroke="#4A3AFF" stroke-width="5" stroke-miterlimit="10"/>
<path d="M2758.57 3V955.387C2758.57 1373.12 2840.28 1652.74 3027.76 2035.45C3200.78 2388.51 3500.75 2797.15 3533.91 3194.74C3555.6 3457.52 3350.25 3519.19 3140.77 3595.42C2883.25 3689.11 2748.24 3746.54 2734.5 4043.62C2724.17 4267.05 2745.97 4492.96 2755.16 4716.18C2779.44 5313.02 2758.05 5913.28 2758.88 6510.53" stroke="#4A3AFF" stroke-width="5" stroke-miterlimit="10"/>
<path d="M2508.04 3C2497.71 313.714 2521.98 622.052 2530.87 932.662C2535.82 1104.65 2512.69 1278.39 2555.76 1446.56C2603.48 1632.49 2693.25 1810.68 2775.99 1982.35C2870.81 2178.62 2973.18 2371.37 3068.21 2567.63C3159.94 2757.07 3303.31 2997.34 3314.88 3213.85C3327.9 3456.49 3117.07 3520.94 2920.6 3586.74C2701.61 3660.08 2551.73 3713.9 2522.29 3957.06C2492.54 4201.87 2515.68 4472.71 2509.48 4721.45C2494.61 5317.36 2508.14 5915.34 2508.35 6511.56" stroke="#4A3AFF" stroke-width="5" stroke-miterlimit="10"/>
<path d="M2257.23 3C2255.79 317.329 2373.54 585.072 2440.89 885.663C2478.49 1053.41 2460.21 1220.44 2496.05 1387.58C2531.9 1554.71 2591.71 1714.61 2651 1873.07C2777.33 2212.7 3005.3 2611.32 3024.2 2977.71C3035.77 3202.9 2868.23 3341.21 2711.73 3477.97C2540.37 3627.75 2422.51 3745.3 2394.93 3975.45C2367.76 4199.6 2339.15 4411.25 2296.49 4633.65C2181.52 5232.76 2257.96 5903.15 2258.06 6510.95" stroke="#4A3AFF" stroke-width="5" stroke-miterlimit="10"/>
<path d="M2007.72 3C2049.04 339.538 2283 532.907 2441.56 813.046C2584.32 1065.4 2553.54 1403.48 2595.27 1685.9C2639.58 1985.45 2708.89 2291.42 2713.44 2594.9C2717.05 2844.25 2620.47 3071.92 2529.68 3299.69C2438.39 3525.07 2375.92 3761.07 2343.74 4002.1C2313.79 4215.2 2218.65 4322.31 2113.19 4497.92C1970.64 4734.77 2012.58 5016.25 2011.75 5281.83C2010.41 5691.5 2008.34 6101.07 2008.03 6511.05" stroke="#4A3AFF" stroke-width="5" stroke-miterlimit="10"/>
<path d="M1757.79 3C1858.92 365.052 2209.4 488.49 2456.8 735.884C2685.08 964.064 2618.04 1204.74 2551 1485.29C2495.64 1716.88 2416.72 1948.78 2398.64 2187.71C2375.09 2494.08 2377.05 2803.04 2351.64 3110.24C2336.77 3289.46 2320.65 3468.68 2311.98 3648.31C2306.3 3767.2 2331.5 3914.5 2305.06 4031.33C2255.68 4250.01 2097.53 4253.83 1934.53 4354.13C1682.29 4509.07 1764.51 4848.92 1763.37 5102.82C1761.41 5572.19 1758.31 6041.47 1757.48 6510.84" stroke="#4A3AFF" stroke-width="5" stroke-miterlimit="10"/>
<path d="M1507.57 3C1650.42 386.95 2105.65 457.501 2413.47 675.765C2696.81 876.366 2652.81 1095.66 2461.61 1335.93C2326.18 1506.06 2136.12 1646.95 2097.38 1875.65C2075.69 2003.43 2107.71 2175.21 2115.56 2301.54L2156.88 2965.42L2198.2 3629.41C2205.43 3744.79 2255.12 3938.05 2217.83 4053.95C2145.52 4279.14 1917.55 4203.94 1737.5 4241.54C1407.78 4310.33 1516.97 4702.44 1515.62 4962.75C1513.04 5478.61 1509.11 5994.47 1507.98 6510.43" stroke="#4A3AFF" stroke-width="5" stroke-miterlimit="10"/>
<path d="M1257.03 3C1396.48 401.722 1906.34 449.444 2229.97 656.346C2520.23 842.278 2502.26 1089.36 2264.26 1297.81C2092.48 1448.11 1870.09 1528.68 1825.67 1780.31C1803.26 1907.26 1835.48 2085.13 1846.33 2209.29C1866.99 2447.39 1894.57 2684.46 1920.5 2922.04C1946.42 3159.62 1973.8 3397.2 1994.66 3634.78C2004.99 3748.4 2054.16 3946.11 2015.32 4061.7C1935.78 4296.08 1684.77 4185.65 1498.84 4204.66C1149.81 4240.81 1266.74 4654.82 1265.39 4916.88C1262.5 5447.82 1258.27 5978.76 1257.03 6509.81" stroke="#4A3AFF" stroke-width="5" stroke-miterlimit="10"/>
<path d="M1007.39 3C1184.24 505.947 2463.25 697.767 1881.69 1358.24C1733.87 1526.1 1542.05 1642.2 1503.73 1881.85C1449.19 2222.72 1551.14 2627.75 1585.02 2965.63C1607.23 3186.68 1630.47 3407.63 1648.34 3629.1C1657.95 3746.96 1701.03 3927.21 1665.7 4046.51C1599.8 4268.81 1398.16 4220.57 1220.6 4277.38C914.015 4375.41 1015.35 4750.78 1014.01 5007.37C1011.53 5508.36 1007.91 6009.34 1006.77 6510.43" stroke="#4A3AFF" stroke-width="5" stroke-miterlimit="10"/>
<path d="M756.426 3C835.034 356.065 1142.44 503.881 1358.74 763.98C1552.63 997.119 1516.68 1233.15 1381.37 1480.23C1272.9 1678.35 1133.46 1841.05 1110.01 2076.04C1078.4 2392.64 1142.44 2734.35 1168.58 3049.09C1193.78 3352.16 1278.17 3717.93 1226.83 4020.59C1190.27 4236.27 1051.75 4277.38 907.341 4406.29C694.655 4596.25 762.727 4911.2 761.384 5167.89C759.628 5615.47 756.942 6063.05 756.219 6510.74" stroke="#4A3AFF" stroke-width="5" stroke-miterlimit="10"/>
<path d="M505.746 3C527.851 329.725 717.399 552.327 839.805 841.865C946.922 1095.15 916.76 1362.06 847.035 1619.99C785.058 1847.24 704.9 2057.97 695.81 2297.2C685.481 2578.68 712.854 2863.78 728.968 3144.22C745.082 3424.67 778.963 3711.73 762.229 3991.25C749.111 4207.14 662.549 4358.88 583.838 4551.94C480.542 4806.87 509.051 5078.75 508.432 5349.18C507.399 5736.43 505.746 6123.9 505.539 6510.84" stroke="#4A3AFF" stroke-width="5" stroke-miterlimit="10"/>
<path d="M255.307 3C245.907 313.92 324.102 602.116 364.18 907.355C399.817 1177.89 384.84 1463.09 360.875 1734.75C317.904 2233.98 309.227 2721.75 322.449 3223.04C335.051 3714.52 328.75 4186.17 275.449 4674.14C209.547 5276.87 255.513 5905.22 255.72 6510.63" stroke="#4A3AFF" stroke-width="5" stroke-miterlimit="10"/>
</svg>
