<?xml version="1.0" encoding="UTF-8"?>
<svg version="1.1" xmlns="http://www.w3.org/2000/svg" width="2262" height="1124">
<path d="M0 0 C1.71528534 0.57549209 3.43094905 1.14985757 5.14697266 1.72314453 C6.98675543 2.35752141 8.82574974 2.9941883 10.6640625 3.6328125 C11.67494934 3.98233978 12.68583618 4.33186707 13.72735596 4.69198608 C17.02737847 5.83400711 20.32624129 6.97933401 23.625 8.125 C24.75585022 8.51695557 25.88670044 8.90891113 27.05181885 9.31274414 C46.41111997 16.02294421 65.73625457 22.82784892 85.04150391 29.69189453 C86.48864777 30.206306 86.48864777 30.206306 87.96502686 30.73110962 C89.75354678 31.36716015 91.54185324 32.0038114 93.32989502 32.64120483 C94.12450134 32.92396271 94.91910767 33.20672058 95.73779297 33.49804688 C96.42034149 33.74131714 97.10289001 33.9845874 97.80612183 34.23522949 C100.5280645 35.18407957 103.26534105 36.08844702 106 37 C106 62.08 106 87.16 106 113 C99.60655569 111.83755558 93.49059768 110.71604988 87.23486328 109.13989258 C86.53856812 108.96552673 85.84227295 108.79116089 85.12487793 108.61151123 C82.85584697 108.04247912 80.58810057 107.46849459 78.3203125 106.89453125 C76.70165654 106.48782432 75.0829106 106.0814753 73.46408081 105.67546082 C69.21006279 104.60769946 64.95706803 103.53592147 60.7043457 102.4630127 C53.16083846 100.56053517 45.61560062 98.6649309 38.0703125 96.76953125 C37.25860847 96.56547794 36.44690445 96.36142464 35.61060333 96.1511879 C20.4302398 92.3364628 5.225248 88.63143801 -10 85 C-10.00593304 82.92358746 -10.01016122 80.84717 -10.01367188 78.77075195 C-10.01620972 77.61444778 -10.01874756 76.45814362 -10.0213623 75.26679993 C-9.99702447 71.54497119 -9.79972398 67.89658424 -9.5 64.1875 C-9.4071875 63.00542969 -9.314375 61.82335937 -9.21875 60.60546875 C-9.1465625 59.74566406 -9.074375 58.88585937 -9 58 C-9.63639404 57.90283691 -10.27278809 57.80567383 -10.9284668 57.70556641 C-15.14454952 56.73708385 -19.09682142 55.22431975 -23.14453125 53.7109375 C-24.06360764 53.37059479 -24.98268402 53.03025208 -25.92961121 52.67959595 C-28.89188105 51.58154947 -31.85218207 50.4782964 -34.8125 49.375 C-36.66719684 48.687174 -38.52201381 47.99967182 -40.37695312 47.3125 C-60.27112905 39.92799517 -80.13063208 32.45101297 -100 25 C-100.33 106.84 -100.66 188.68 -101 273 C-137.96 273 -174.92 273 -213 273 C-213 206.67 -213 140.34 -213 72 C-194.60314478 62.80157239 -194.60314478 62.80157239 -188.6171875 60.17578125 C-187.9225238 59.86737305 -187.22786011 59.55896484 -186.512146 59.24121094 C-184.30145834 58.26108917 -182.08836018 57.28656947 -179.875 56.3125 C-178.29597537 55.61437052 -176.7170382 54.9160432 -175.13818359 54.2175293 C-164.24277832 49.40318876 -153.33604047 44.61154142 -142.38449097 39.92610168 C-136.32472618 37.32952953 -130.29560144 34.69330251 -124.31884766 31.90893555 C-105.40425675 23.20906512 -86.26607032 17.36416474 -66.14923096 12.12756348 C-62.11721349 11.07291432 -58.09208124 9.99262115 -54.06640625 8.9140625 C-49.42726452 7.67170254 -44.78732694 6.43341522 -40.14001465 5.22192383 C-34.09907834 3.64510324 -28.07244686 2.06695233 -22.11523438 0.19140625 C-20.87933563 -0.19029724 -20.87933563 -0.19029724 -19.61846924 -0.57971191 C-17.62396553 -1.20777212 -15.63977811 -1.86837679 -13.65722656 -2.53320312 C-8.53465655 -3.18703182 -4.78738447 -1.73686879 0 0 Z " fill="#0F4385" transform="translate(400,516)"/>
<path d="M0 0 C0.72973526 0.30250168 1.45947052 0.60500336 2.21131897 0.91667175 C4.53655897 1.90063608 6.83897924 2.92693982 9.140625 3.96484375 C10.43709961 4.54321487 10.43709961 4.54321487 11.75976562 5.13327026 C13.62132335 5.96437891 15.48201727 6.79742459 17.34191895 7.63223267 C20.29883779 8.95942042 23.25799933 10.28148807 26.21777344 11.60229492 C30.37003733 13.45584653 34.52136713 15.31146494 38.671875 17.16894531 C47.89728387 21.29713093 57.12744375 25.41461536 66.36071777 29.525177 C69.17015399 30.77692452 71.97819663 32.03175726 74.78613281 33.28686523 C76.55006938 34.07289042 78.31406396 34.85878545 80.078125 35.64453125 C80.8319043 35.98241669 81.58568359 36.32030212 82.36230469 36.66842651 C90.50962697 40.28985657 98.74369372 43.60034447 107 47 C107 73.07 107 99.14 107 126 C100.85525282 124.15657585 94.92878581 122.32540016 88.98046875 120.015625 C88.22758575 119.72684982 87.47470276 119.43807465 86.69900513 119.14054871 C85.05763017 118.51080163 83.41681956 117.87958206 81.77651978 117.24703979 C79.12205442 116.2247967 76.46510819 115.20926643 73.80737305 114.19555664 C64.92568706 110.80682937 56.04836308 107.40709698 47.18066406 103.98193359 C40.96324397 101.58045019 34.7413345 99.19096646 28.51499271 96.8127079 C25.07480419 95.49801175 21.63716652 94.17734433 18.2046814 92.84265137 C14.32655952 91.33476846 10.43921647 89.85217906 6.55078125 88.37109375 C5.38580109 87.91357224 4.22082092 87.45605072 3.02053833 86.98466492 C1.93392914 86.57521133 0.84731995 86.16575775 -0.2722168 85.74389648 C-1.68436714 85.20006569 -1.68436714 85.20006569 -3.12504578 84.64524841 C-9.05285184 83.31482464 -14.55489298 85.34402121 -20.19775391 87.16137695 C-20.88015137 87.37942993 -21.56254883 87.59748291 -22.265625 87.82214355 C-24.50433569 88.5389167 -26.74041071 89.2635686 -28.9765625 89.98828125 C-30.54950749 90.49344908 -32.1226205 90.99809402 -33.69589233 91.50224304 C-37.83197624 92.82906148 -41.96590535 94.16246933 -46.09936523 95.49743652 C-51.08534459 97.10649327 -56.07369873 98.70816799 -61.06181908 100.31057262 C-64.95159852 101.56024174 -68.84099523 102.81105435 -72.72915649 104.06575012 C-76.81718261 105.38426937 -80.90777646 106.69457211 -85 108 C-85.63882866 108.2046072 -86.27765732 108.4092144 -86.93584442 108.62002182 C-88.74266284 109.1969987 -90.55170268 109.76700525 -92.36083984 110.33666992 C-93.89144547 110.82063484 -93.89144547 110.82063484 -95.45297241 111.31437683 C-98 112 -98 112 -101 112 C-101 85.93 -101 59.86 -101 33 C-94.37355638 29.98798017 -87.89724032 27.08261936 -81.109375 24.5390625 C-80.2978447 24.2311528 -79.48631439 23.9232431 -78.65019226 23.60600281 C-75.1029615 22.26128597 -71.55196908 20.92663212 -68.00125122 19.59115601 C-65.17345967 18.52707021 -62.34627324 17.46140204 -59.51953125 16.39453125 C-58.56929581 16.03604599 -57.61906036 15.67756073 -56.64002991 15.30821228 C-50.01837809 12.79760338 -43.44656964 10.1790424 -36.88671875 7.51171875 C-34.2497542 6.45198246 -31.61183791 5.39465673 -28.97351074 4.33831787 C-27.29484367 3.65929603 -25.62016245 2.97032839 -23.9498291 2.27105713 C-21.62060837 1.29689875 -19.27970654 0.35836864 -16.93359375 -0.57421875 C-16.26027512 -0.86702225 -15.58695648 -1.15982574 -14.89323425 -1.46150208 C-9.18577622 -3.66535527 -5.46918738 -2.38287154 0 0 Z " fill="#114586" transform="translate(399,423)"/>
<path d="M0 0 C1.22783203 0.81984375 1.22783203 0.81984375 2.48046875 1.65625 C3.85393894 2.44667464 5.22914736 3.23408175 6.60546875 4.01953125 C8.23299853 4.9984103 9.85783736 5.98177243 11.48046875 6.96875 C12.80280518 7.76780762 12.80280518 7.76780762 14.15185547 8.58300781 C22.08942608 13.39135736 29.98034129 18.27465634 37.86328125 23.171875 C44.05751801 27.01870582 50.26872843 30.83776972 56.48046875 34.65625 C63.42066762 38.92316077 70.35854273 43.1935069 77.2800293 47.49072266 C78.23304932 48.08159668 79.18606934 48.6724707 80.16796875 49.28125 C81.25425568 49.99417206 81.25425568 49.99417206 82.36248779 50.72149658 C86.95332826 53.67636386 91.36285608 56.09181317 96.46826172 58.04492188 C103.13560955 60.8430041 109.04106964 63.78614081 113.48046875 69.65625 C117.06448849 80.59614142 115.75995461 92.67067091 115.05975342 103.99401855 C114.82236539 108.24206867 114.71900408 112.49329347 114.60351562 116.74609375 C114.35841914 125.05818312 113.96728888 133.35482204 113.48046875 141.65625 C110.1130346 141.02296065 107.34604851 140.2738082 104.28515625 138.72265625 C103.49705566 138.3263501 102.70895508 137.93004395 101.89697266 137.52172852 C101.05827637 137.09174561 100.21958008 136.6617627 99.35546875 136.21875 C98.02974854 135.54767212 98.02974854 135.54767212 96.67724609 134.86303711 C90.00403157 131.47179951 83.38087359 127.98779715 76.76904297 124.47875977 C70.71817536 121.2778844 64.61148325 118.20040227 58.48046875 115.15625 C50.776901 111.33129848 43.14069815 107.40170267 35.54541016 103.36645508 C28.8920331 99.84329476 22.16960205 96.46800955 15.41552734 93.14233398 C14.64031738 92.75891846 13.86510742 92.37550293 13.06640625 91.98046875 C12.30424805 91.60970215 11.54208984 91.23893555 10.75683594 90.85693359 C8.48046875 89.65625 8.48046875 89.65625 6.21191406 88.14697266 C2.16602849 85.42952333 2.16602849 85.42952333 -2.52197266 84.76220703 C-4.98038441 85.52612687 -7.19565282 86.54484835 -9.51953125 87.65625 C-11.29208093 88.42137026 -13.06468632 89.18636307 -14.83802795 89.949646 C-17.65188289 91.1727822 -20.44839932 92.43330907 -23.24557495 93.69403076 C-27.19879805 95.47548266 -31.15851911 97.24240904 -35.1171875 99.01171875 C-35.94944351 99.3841571 -36.78169952 99.75659546 -37.63917542 100.14031982 C-46.81521309 104.24347699 -56.01564332 108.29082824 -65.2199707 112.33004761 C-67.922442 113.51606996 -70.62431582 114.70344604 -73.32617188 115.89086914 C-74.99344054 116.62267033 -76.6607559 117.35436516 -78.328125 118.0859375 C-79.46331825 118.58490288 -79.46331825 118.58490288 -80.6214447 119.09394836 C-82.58486636 119.95423535 -84.55122974 120.80719994 -86.51953125 121.65625 C-87.91764038 122.26170654 -87.91764038 122.26170654 -89.34399414 122.87939453 C-91.51953125 123.65625 -91.51953125 123.65625 -94.51953125 123.65625 C-94.72834136 114.76374884 -94.88811055 105.87209485 -94.9858408 96.97767448 C-95.03275542 92.84718949 -95.09634495 88.71838489 -95.19848633 84.58886719 C-95.29650079 80.60110189 -95.35013199 76.61494899 -95.37342644 72.62607193 C-95.39001831 71.10683933 -95.42242328 69.5876922 -95.47110176 68.06914902 C-95.83620307 56.20447614 -95.83620307 56.20447614 -92.6703949 52.48191833 C-90.35071049 50.90696421 -88.09177439 49.76183853 -85.51953125 48.65625 C-84.47144287 48.01598877 -83.42335449 47.37572754 -82.34350586 46.71606445 C-81.37936768 46.1562085 -80.41522949 45.59635254 -79.421875 45.01953125 C-78.3069165 44.36952148 -77.19195801 43.71951172 -76.04321289 43.04980469 C-75.46024445 42.71154663 -74.877276 42.37328857 -74.27664185 42.02478027 C-71.08053437 40.16988547 -67.89015896 38.3051715 -64.69921875 36.44140625 C-64.03279861 36.05242157 -63.36637848 35.66343689 -62.67976379 35.26266479 C-55.80667523 31.24731003 -48.96137541 27.18564991 -42.11981201 23.11688232 C-40.09242734 21.91242625 -38.06330596 20.71094796 -36.03369141 19.51025391 C-29.91829242 15.88920909 -23.82478746 12.24243403 -17.78515625 8.49609375 C-16.76993896 7.87379883 -15.75472168 7.25150391 -14.70874023 6.61035156 C-12.84733047 5.4672504 -10.99456135 4.30990586 -9.15258789 3.13574219 C-3.27897754 -0.44736438 -3.27897754 -0.44736438 0 0 Z " fill="#114586" transform="translate(392.51953125,326.34375)"/>
<path d="M0 0 C19 0 19 0 24.3125 4.8125 C25.6237793 6.54052734 25.6237793 6.54052734 26.57421875 8.1484375 C28.82172644 11.7713706 31.3001084 15.16232226 33.85620117 18.57299805 C35.66574332 20.99196502 37.44770591 23.42949312 39.2265625 25.87109375 C43.08053801 31.13523264 47.03237983 36.32124679 51 41.5 C56.65391112 48.88612425 62.21470782 56.33195268 67.7109375 63.8359375 C72.07277032 69.77671433 76.52054548 75.6475326 81 81.5 C86.64398812 88.87394616 92.1979562 96.30536317 97.68237305 103.79858398 C103.00259322 111.04844139 108.45502447 118.19500193 113.93554688 125.32421875 C114.58201172 126.16726563 115.22847656 127.0103125 115.89453125 127.87890625 C116.47050049 128.6272876 117.04646973 129.37566895 117.63989258 130.14672852 C119 132 119 132 120 134 C120.33 89.78 120.66 45.56 121 0 C129.58 0 138.16 0 147 0 C147 61.05 147 122.1 147 185 C127 185 127 185 122.546875 181.58203125 C121.078125 179.3125 121.078125 179.3125 119.75 176.8125 C118.64460118 175.05608505 117.53506516 173.30226853 116.421875 171.55078125 C115.86951172 170.63506348 115.31714844 169.7193457 114.74804688 168.77587891 C111.81155911 164.11276914 108.39219913 159.83649872 105 155.5 C99.33796727 148.1202491 93.78515213 140.66785611 88.2890625 133.1640625 C83.92722706 127.2232821 79.47929729 121.35259083 75 115.5 C68.13634495 106.52799879 61.40227277 97.46837776 54.7265625 88.35595703 C51.78156663 84.33740356 48.8285237 80.32478756 45.875 76.3125 C45.36179199 75.61366699 44.84858398 74.91483398 44.31982422 74.19482422 C38.60028911 66.42185033 32.79122365 58.72163153 27 51 C26.67 95.22 26.34 139.44 26 185 C17.42 185 8.84 185 0 185 C0 123.95 0 62.9 0 0 Z " fill="#154888" transform="translate(707,384)"/>
<path d="M0 0 C18.89971425 15.92362288 33.27837998 38.07437058 35.8125 63.1875 C37.17620121 91.65266558 33.34934625 117.74211731 13.85888672 139.8125 C-2.49573088 157.79078111 -23.14791531 170.87659533 -47.94580078 172.3515625 C-75.65663903 173.43560507 -100.14444065 166.84188775 -121.1875 148.1875 C-121.81011719 147.63578125 -122.43273438 147.0840625 -123.07421875 146.515625 C-140.29731654 130.26011697 -150.49944295 105.84316656 -151.40625 82.375 C-152.04427146 56.2907568 -145.67424228 31.37303837 -127.6875 11.75 C-125.88626764 9.85847331 -124.04748829 8.02308611 -122.1875 6.1875 C-121.44757813 5.44886719 -120.70765625 4.71023438 -119.9453125 3.94921875 C-87.93292725 -26.24561349 -34.23688389 -26.53358501 0 0 Z M-108.1875 28.1875 C-122.28159968 45.99693468 -126.49071432 67.26345788 -123.91503906 89.54443359 C-120.97461919 108.45724756 -111.60802923 124.71870378 -96.1875 136.125 C-80.29292978 146.41266671 -61.67411964 149.90590368 -43.02734375 146.53125 C-25.91416878 142.42550378 -11.32737032 132.66712936 -1.7109375 117.84375 C9.02623973 99.12251791 12.06691624 79.22675244 7.8125 58.1875 C2.69353264 39.34491974 -7.87401107 24.02740523 -24.73046875 14.0625 C-29.43129714 11.51289816 -34.03864528 9.61248885 -39.1875 8.1875 C-39.94804688 7.96449219 -40.70859375 7.74148438 -41.4921875 7.51171875 C-65.31800989 1.61542937 -92.15551756 9.59894153 -108.1875 28.1875 Z " fill="#154888" transform="translate(1183.1875,399.8125)"/>
<path d="M0 0 C96.41847826 0 96.41847826 0 112.8125 15.7109375 C123.599532 26.99879598 127.37142614 39.12310492 127.30249023 54.55297852 C126.98400176 68.02578147 122.57833426 80.02380227 113.296875 89.8984375 C102.2526226 100.00355279 89.2960686 103.48389193 75 106 C76.2684375 107.45019531 76.2684375 107.45019531 77.5625 108.9296875 C83.16224154 115.34995247 88.70519125 121.78169859 93.9765625 128.4765625 C96.42801518 131.53377955 98.959062 134.5171035 101.5 137.5 C105.31985487 141.98853985 109.05189795 146.53026764 112.71484375 151.1484375 C115.735486 154.91778595 118.80364523 158.64692898 121.875 162.375 C122.47562256 163.10501221 123.07624512 163.83502441 123.69506836 164.5871582 C126.48501596 167.97260659 129.28525731 171.34757264 132.125 174.69140625 C132.59309082 175.2445752 133.06118164 175.79774414 133.54345703 176.36767578 C134.79315372 177.84100723 136.04871916 179.30935503 137.3046875 180.77734375 C139 183 139 183 139 185 C107.89737916 187.24764514 107.89737916 187.24764514 101.74609375 182.59765625 C99.30657308 179.99905437 97.60975443 177.03316366 96.00732422 173.86425781 C94.29327401 170.69206019 91.96705546 168.02814554 89.6875 165.25 C88.77625431 164.08520032 87.8674536 162.9184843 86.9609375 161.75 C83.05771122 156.77305345 79.01408672 151.91206275 74.98339844 147.03833008 C71.3220355 142.60989648 67.69953818 138.1552377 64.125 133.65625 C62.38487135 131.48108919 60.63388483 129.3162107 58.875 127.15625 C58.31393555 126.46611816 57.75287109 125.77598633 57.17480469 125.06494141 C56.02233319 123.65366588 54.86416781 122.24701983 53.70019531 120.84521484 C50.69966299 117.21065699 48.13655375 113.5969938 45.6875 109.5625 C40.93129767 104.19685788 40.93129767 104.19685788 26 105 C26 131.4 26 157.8 26 185 C17.42 185 8.84 185 0 185 C0 123.95 0 62.9 0 0 Z M26 23 C26 42.8 26 62.6 26 83 C37.818125 83.0928125 37.818125 83.0928125 49.875 83.1875 C52.34210449 83.21481201 54.80920898 83.24212402 57.35107422 83.27026367 C59.33560702 83.2790364 61.32014528 83.28667847 63.3046875 83.29296875 C64.31152588 83.30831665 65.31836426 83.32366455 66.35571289 83.33947754 C75.95668489 83.34298069 85.54875345 81.45987898 93 75 C99.8992753 66.84352342 101.87184494 58.52026227 101 48 C99.79763381 39.37432952 95.44246687 33.70231291 89 28 C83.57144056 24.39048416 78.31385673 22.87051026 71.86425781 22.88647461 C70.31182373 22.88665588 70.31182373 22.88665588 68.72802734 22.88684082 C67.64730957 22.89195679 66.5665918 22.89707275 65.453125 22.90234375 C63.95531494 22.90385437 63.95531494 22.90385437 62.42724609 22.90539551 C58.70148569 22.91062276 54.97574168 22.92458403 51.25 22.9375 C38.75125 22.9684375 38.75125 22.9684375 26 23 Z " fill="#154888" transform="translate(1434,384)"/>
<path d="M0 0 C40.59 0 81.18 0 123 0 C123 7.92 123 15.84 123 24 C90.99 24 58.98 24 26 24 C26 42.15 26 60.3 26 79 C55.7 79 85.4 79 116 79 C116 86.59 116 94.18 116 102 C86.3 102 56.6 102 26 102 C26 121.8 26 141.6 26 162 C58.34 162 90.68 162 124 162 C124 169.59 124 177.18 124 185 C83.08 185 42.16 185 0 185 C0 123.95 0 62.9 0 0 Z " fill="#134787" transform="translate(1778,384)"/>
<path d="M0 0 C8.58 0 17.16 0 26 0 C26.01458252 3.62766357 26.02916504 7.25532715 26.04418945 10.99291992 C26.09464327 23.01100756 26.16110965 35.02895732 26.23571491 47.04691601 C26.28053768 54.32968377 26.31998284 61.6124041 26.34643555 68.89526367 C26.36952586 75.24854295 26.40304511 81.60167043 26.44870156 87.95482904 C26.47248669 91.3138176 26.48975428 94.67252076 26.49761391 98.03160667 C26.50730975 101.79627861 26.53543551 105.56041323 26.56762695 109.32495117 C26.56547432 110.96602844 26.56547432 110.96602844 26.5632782 112.64025879 C26.72738854 126.31025464 29.72144382 139.5423345 39.25 149.8125 C50.13709252 159.7684596 62.43336942 162.8365019 76.83984375 162.34765625 C88.54534778 161.60254203 98.25064849 156.17003142 106.25 147.8125 C116.05431615 136.13325487 117.28938389 122.33829614 117.31884766 107.62207031 C117.32889328 106.44988953 117.3389389 105.27770874 117.34928894 104.07000732 C117.37989916 100.23938436 117.39709411 96.40883055 117.4140625 92.578125 C117.43279201 89.90483624 117.45227308 87.23156344 117.4727478 84.55828857 C117.51928616 78.26884559 117.55614981 71.97938575 117.58942068 65.68986011 C117.62781985 58.52158654 117.67718252 51.35340108 117.72740483 44.18520212 C117.83035304 29.45686522 117.91828588 14.72847142 118 0 C126.58 0 135.16 0 144 0 C144.06792886 16.18657646 144.12310444 32.37302976 144.15543652 48.55970955 C144.17085318 56.07680519 144.19184215 63.59380545 144.22631836 71.11083984 C144.25638115 77.66876351 144.27561271 84.22661805 144.28226548 90.78460872 C144.28614942 94.25152395 144.29516614 97.71824155 144.31719017 101.18509293 C144.3416754 105.07151013 144.34195928 108.9577405 144.34057617 112.84423828 C144.351362 113.97209747 144.36214783 115.09995667 144.3732605 116.26199341 C144.2988826 135.72993214 137.76385011 154.0722365 124.25 168.25 C108.80992557 182.98931462 90.17171159 188.56470824 69.25024414 188.41723633 C50.73249098 187.91331945 32.83213792 181.31753978 19.6875 167.984375 C0.63252157 147.42792979 -0.47688989 123.96538316 -0.30418181 97.33848953 C-0.28518396 93.90593548 -0.28364667 90.47337 -0.28010559 87.04077148 C-0.27085194 80.56719107 -0.24633069 74.09376611 -0.21605712 67.62025356 C-0.18230254 60.23915024 -0.16597467 52.85803874 -0.15097082 45.47687721 C-0.11977349 30.31781781 -0.06484725 15.15895983 0 0 Z " fill="#144787" transform="translate(1250,384)"/>
<path d="M0 0 C3.48467818 3.19935553 6.78346502 6.53228225 10 10 C8.60652624 13.15204981 6.97514921 15.26171773 4.5234375 17.671875 C3.853125 18.33574219 3.1828125 18.99960937 2.4921875 19.68359375 C1.44417969 20.70646484 1.44417969 20.70646484 0.375 21.75 C-0.33140625 22.44738281 -1.0378125 23.14476562 -1.765625 23.86328125 C-3.50598703 25.58012488 -5.25084981 27.29211832 -7 29 C-7.45963135 28.60312988 -7.9192627 28.20625977 -8.39282227 27.79736328 C-23.08578763 15.14942431 -35.00863414 9.90794276 -54.65527344 10.80029297 C-62.20817286 11.4435949 -68.90804078 14.41126428 -74 20 C-77.81050631 26.02036107 -79.06474326 31.95716698 -78 39 C-76.10425753 46.23936656 -72.21735138 50.9636991 -66 55 C-57.09085206 60.04271796 -47.56438605 63.60056305 -37.9375 67 C-19.55971488 73.50224901 -1.59389309 81.09449831 7.28125 99.68359375 C12.89405936 113.17438197 13.3564916 130.54981069 8.26953125 144.30078125 C5.20918854 150.80754067 1.35716103 156.17855507 -4 161 C-5.2684375 162.2065625 -5.2684375 162.2065625 -6.5625 163.4375 C-14.13132381 169.58959525 -23.56112509 173.00607354 -33 175 C-33.84949219 175.18433594 -34.69898438 175.36867188 -35.57421875 175.55859375 C-58.58050579 178.5229158 -82.49227638 175.73825834 -101.35253906 161.36767578 C-106.97418723 156.70074142 -111.9764358 151.29109128 -117 146 C-115.60652624 142.84795019 -113.97514921 140.73828227 -111.5234375 138.328125 C-110.853125 137.66425781 -110.1828125 137.00039063 -109.4921875 136.31640625 C-108.44417969 135.29353516 -108.44417969 135.29353516 -107.375 134.25 C-106.66859375 133.55261719 -105.9621875 132.85523438 -105.234375 132.13671875 C-103.49401297 130.41987512 -101.74915019 128.70788168 -100 127 C-97.07188319 129.25126569 -94.54061308 131.36745464 -92.3125 134.3125 C-83.29962778 145.05418403 -70.56752086 149.56718489 -57 151 C-44.8665726 151.99511563 -31.53374664 150.07118324 -22 142 C-17.06517506 136.07135614 -15.59985776 130.39659034 -15.734375 122.78515625 C-16.41190486 115.68105638 -18.66770933 109.77830484 -23.8125 104.75 C-34.90754823 95.9627218 -49.33545697 91.85553842 -62.48144531 87.08276367 C-79.2170336 80.91672425 -94.40945889 72.91767015 -102.1875 56.09765625 C-106.92706107 43.86138561 -106.6675081 28.17610809 -102 16 C-101.61714844 14.96359375 -101.61714844 14.96359375 -101.2265625 13.90625 C-96.32625507 2.57709887 -86.23113236 -5.2328103 -75.27734375 -10.24609375 C-50.55243612 -19.95817977 -21.13641327 -16.07471778 0 0 Z " fill="#164988" transform="translate(996,396)"/>
<path d="M0 0 C4.61443328 3.6890954 8.1526803 7.06878006 11.87890625 11.7265625 C6.26890625 17.3365625 0.65890625 22.9465625 -5.12109375 28.7265625 C-8.58433502 26.99494187 -10.73883967 25.45530101 -13.62109375 22.9765625 C-28.47958842 10.93681167 -46.36344051 7.23972476 -65.12109375 8.7265625 C-81.66174498 11.03534609 -96.41979592 18.60268213 -107.30859375 31.3515625 C-120.98896193 49.50914209 -124.30498778 70.46126695 -121.6484375 92.6796875 C-118.37824708 110.14681237 -109.67695901 126.22252781 -95.12109375 136.7265625 C-77.62393479 147.4705146 -59.02777575 150.29329105 -38.80859375 146.7265625 C-26.06151709 143.48295441 -15.22059446 137.17604401 -6.12109375 127.7265625 C-2.96904394 129.12003626 -0.85937602 130.75141329 1.55078125 133.203125 C2.21464844 133.8734375 2.87851563 134.54375 3.5625 135.234375 C4.58537109 136.28238281 4.58537109 136.28238281 5.62890625 137.3515625 C6.32628906 138.05796875 7.02367187 138.764375 7.7421875 139.4921875 C9.45903113 141.23254953 11.17102457 142.97741231 12.87890625 144.7265625 C-1.07826434 161.85028139 -21.51160378 170.77475528 -43.12109375 173.7265625 C-47.18842786 174.00984776 -51.23234099 174.06121949 -55.30859375 174.0390625 C-56.40284668 174.03342285 -57.49709961 174.0277832 -58.62451172 174.02197266 C-83.31345564 173.65445853 -104.28838048 165.0365928 -122.12109375 147.7265625 C-122.806875 147.11425781 -123.49265625 146.50195312 -124.19921875 145.87109375 C-140.15969434 131.13593026 -149.10522671 107.71576591 -150.24658203 86.38085938 C-151.2387854 60.39410593 -145.81686235 34.12992026 -127.74609375 14.4140625 C-125.90295017 12.48176515 -124.02084596 10.60493915 -122.12109375 8.7265625 C-121.31800781 7.91316406 -120.51492188 7.09976562 -119.6875 6.26171875 C-88.19861559 -23.9862244 -34.69033595 -25.26880541 0 0 Z " fill="#164988" transform="translate(1736.12109375,398.2734375)"/>
<path d="M0 0 C7.24044114 0 14.09453094 0.15266939 21.24145508 0.90209961 C22.1990271 0.99802902 23.15659912 1.09395844 24.14318848 1.1927948 C27.26920006 1.50733164 30.39434836 1.82968584 33.51953125 2.15234375 C35.70899717 2.37457618 37.89850704 2.59637592 40.08805847 2.81776428 C44.65825792 3.28099243 49.22807037 3.74781255 53.79760742 4.2175293 C59.6489409 4.81894526 65.5009142 5.41383096 71.35315418 6.00635433 C75.86662503 6.46362397 80.37987206 6.92306956 84.89304161 7.38330269 C87.05113581 7.6033547 89.20926872 7.82302746 91.36744118 8.04231071 C94.38034424 8.34902398 97.39296635 8.65835832 100.40551758 8.96850586 C101.29238754 9.05841797 102.17925751 9.14833008 103.09300232 9.2409668 C103.9183548 9.326483 104.74370728 9.41199921 105.59407043 9.50010681 C106.30431272 9.57292846 107.014555 9.6457501 107.74631977 9.72077847 C110.50926931 10.06309633 113.25380568 10.54230095 116 11 C116 36.08 116 61.16 116 87 C77.72 87 39.44 87 0 87 C0 58.29 0 29.58 0 0 Z " fill="#114586" transform="translate(390,702)"/>
<path d="M0 0 C23.8740314 5.24698419 47.70405836 10.66536872 71.50390625 16.23901367 C75.86264593 17.25970011 80.22236154 18.27615476 84.58231544 19.29164028 C87.98663527 20.08508983 91.39040785 20.88086615 94.79401779 21.67735481 C96.40542972 22.05410954 98.01702291 22.43008991 99.62880325 22.80526543 C101.84506737 23.32146239 104.06056254 23.84083699 106.27587891 24.36108398 C107.53075104 24.6545018 108.78562317 24.94791962 110.07852173 25.25022888 C113 26 113 26 115 27 C115 51.75 115 76.5 115 102 C106.82889825 101.41634987 98.79519789 100.83578572 90.69335938 99.80078125 C89.76460999 99.68519867 88.8358606 99.56961609 87.87896729 99.45053101 C84.86677013 99.07474695 81.85526149 98.69373646 78.84375 98.3125 C76.72582554 98.04699332 74.60786424 97.78178044 72.48986816 97.5168457 C68.07889627 96.96433077 63.66823548 96.40941841 59.2578125 95.85253906 C53.61161807 95.13966051 47.96489071 94.43111661 42.31795502 93.72413635 C36.90969094 93.04681438 31.50171749 92.36718516 26.09375 91.6875 C25.06795334 91.55880524 24.04215668 91.43011047 22.98527527 91.29751587 C20.08051498 90.932699 17.17596932 90.56622055 14.27148438 90.19921875 C13.41737976 90.09217621 12.56327515 89.98513367 11.68328857 89.87484741 C7.43762536 89.33652324 3.21643185 88.7404113 -1 88 C-1.21591272 58.65912286 -0.59680983 29.33363512 0 0 Z " fill="#114586" transform="translate(391,607)"/>
<path d="M0 0 C5.06028897 6.07234676 6.88019586 10.51874481 6.6875 18.3125 C6.67468994 19.10197021 6.66187988 19.89144043 6.64868164 20.70483398 C6.17697096 34.44603221 0.68560279 43.63942741 -9.1875 52.875 C-19.39 61.625 -19.39 61.625 -24.8125 61.625 C-18.29673912 72.19187215 -11.60903162 82.62409469 -4.67089844 92.91894531 C-3.17324741 95.14619591 -1.68831593 97.38161504 -0.203125 99.6171875 C8.01490645 112.71130055 8.01490645 112.71130055 20.1875 121.625 C22.51245277 122.01249213 24.84601268 122.35482839 27.1875 122.625 C27.1875 124.605 27.1875 126.585 27.1875 128.625 C0.64655923 130.97621 0.64655923 130.97621 -6.08496094 127.42675781 C-9.48652613 124.19680311 -11.16426746 120.11875058 -12.86669922 115.81445312 C-14.48750136 112.06242587 -16.8373056 108.80869236 -19.125 105.4375 C-20.04537299 104.01932556 -20.96196301 102.59868977 -21.875 101.17578125 C-25.11534707 96.15257928 -28.36873928 91.137897 -31.625 86.125 C-32.15198486 85.31264893 -32.67896973 84.50029785 -33.22192383 83.66333008 C-34.24306067 82.09159444 -35.27245608 80.52518952 -36.31054688 78.96459961 C-37.33618913 77.36695173 -38.30467427 75.73152622 -39.22070312 74.06860352 C-41.70313042 69.5427024 -41.70313042 69.5427024 -45.87719727 66.82568359 C-48.19600948 66.51684561 -50.35084044 66.47735054 -52.6875 66.5625 C-53.863125 66.55186523 -53.863125 66.55186523 -55.0625 66.54101562 C-56.97933547 66.5293276 -58.8963713 66.57165566 -60.8125 66.625 C-62.8125 61 -62.8125 61 -62.8125 57.625 C-62.20889648 57.61041748 -61.60529297 57.59583496 -60.98339844 57.58081055 C-37.34075419 57.29902387 -37.34075419 57.29902387 -17.15234375 46.078125 C-11.7203369 39.93346419 -11.36322071 34.0521176 -11.50390625 26.140625 C-12.0744791 19.64042798 -14.17824008 14.86248617 -18.875 10.3125 C-30.40654545 1.55436421 -45.07709558 2.57046171 -58.8359375 2.609375 C-59.9954895 2.61106689 -59.9954895 2.61106689 -61.1784668 2.61279297 C-63.05648003 2.61569786 -64.93449071 2.62017979 -66.8125 2.625 C-66.77535255 17.6978504 -66.71552037 32.77048314 -66.62859726 47.84312916 C-66.58876856 54.84146833 -66.55639568 61.83969444 -66.54150391 68.83813477 C-66.52712017 75.58802221 -66.49205335 82.33750876 -66.44419098 89.08725548 C-66.42931715 91.66650033 -66.42145557 94.24579518 -66.42061615 96.82508278 C-66.41826284 100.42910035 -66.39131389 104.03213682 -66.35839844 107.63598633 C-66.3634288 108.70988617 -66.36845917 109.78378601 -66.37364197 110.89022827 C-66.35972916 111.87039413 -66.34581635 112.85056 -66.33148193 113.86042786 C-66.32779476 114.71308637 -66.32410759 115.56574488 -66.32030869 116.44424152 C-65.98552798 118.7813201 -65.98552798 118.7813201 -63.96854019 120.39080334 C-61.12769355 122.01700839 -58.81593242 122.13568302 -55.5625 122.3125 C-53.94601562 122.41111328 -53.94601562 122.41111328 -52.296875 122.51171875 C-51.47703125 122.54910156 -50.6571875 122.58648438 -49.8125 122.625 C-49.8125 124.605 -49.8125 126.585 -49.8125 128.625 C-66.6425 128.625 -83.4725 128.625 -100.8125 128.625 C-100.8125 126.645 -100.8125 124.665 -100.8125 122.625 C-99.69101562 122.56892578 -99.69101562 122.56892578 -98.546875 122.51171875 C-97.56203125 122.44597656 -96.5771875 122.38023437 -95.5625 122.3125 C-94.10070312 122.22548828 -94.10070312 122.22548828 -92.609375 122.13671875 C-89.43810862 121.55650102 -88.13490566 120.83037596 -85.8125 118.625 C-85.2214133 116.42286558 -85.2214133 116.42286558 -85.32475281 113.9185791 C-85.31780899 112.95116287 -85.31086517 111.98374664 -85.30371094 110.98701477 C-85.316521 109.9271788 -85.32933105 108.86734283 -85.3425293 107.77539062 C-85.3403389 106.65811081 -85.3381485 105.54083099 -85.33589172 104.38969421 C-85.33357517 100.68658106 -85.35986808 96.98425754 -85.38671875 93.28125 C-85.39164023 90.71439873 -85.39494069 88.14754388 -85.39668274 85.58068848 C-85.40433185 80.19706061 -85.42438362 74.81371273 -85.45581055 69.43017578 C-85.49609877 62.51955954 -85.51349795 55.60909132 -85.52311993 48.69837189 C-85.53231222 42.12180849 -85.55298455 35.54528468 -85.57421875 28.96875 C-85.5776145 27.70791092 -85.58101025 26.44707184 -85.5845089 25.14802551 C-85.596056 21.59016846 -85.61457304 18.03242213 -85.63549805 14.47460938 C-85.63818695 13.41477341 -85.64087585 12.35493744 -85.64364624 11.26298523 C-85.65080154 10.295569 -85.65795685 9.32815277 -85.66532898 8.3314209 C-85.66960246 7.49003319 -85.67387594 6.64864548 -85.67827892 5.78176117 C-85.73134498 3.44064497 -85.73134498 3.44064497 -86.8125 0.625 C-89.51433055 -0.72591528 -91.93058206 -0.71358058 -94.9375 -0.9375 C-96.58105469 -1.06318359 -96.58105469 -1.06318359 -98.2578125 -1.19140625 C-99.10085938 -1.25199219 -99.94390625 -1.31257812 -100.8125 -1.375 C-100.8125 -3.685 -100.8125 -5.995 -100.8125 -8.375 C-99.70028076 -8.40005615 -98.58806152 -8.4251123 -97.44213867 -8.45092773 C-93.2168095 -8.54687882 -88.99157546 -8.64659813 -84.76635742 -8.74731445 C-82.95615908 -8.78996938 -81.14593804 -8.83167394 -79.33569336 -8.87231445 C-68.98686065 -9.10535739 -58.65470206 -9.42436312 -48.31999207 -10.02598572 C-30.96985851 -11.02834805 -14.09858309 -11.90547017 0 0 Z " fill="#194C8A" transform="translate(724.8125,662.375)"/>
<path d="M0 0 C34.32 0 68.64 0 104 0 C104.8562384 3.4249536 105.18646653 6.15081545 105.31640625 9.640625 C105.35830078 10.71054687 105.40019531 11.78046875 105.44335938 12.8828125 C105.48267578 13.99398437 105.52199219 15.10515625 105.5625 16.25 C105.60568359 17.37664063 105.64886719 18.50328125 105.69335938 19.6640625 C105.79932015 22.44258954 105.90139142 25.22120391 106 28 C103.69 28.33 101.38 28.66 99 29 C98.84144531 28.33613281 98.68289063 27.67226563 98.51953125 26.98828125 C96.67553913 20.00963702 94.50364981 16.39273646 88.4375 12.25 C84.85832308 10.41452466 81.75324786 9.87575831 77.75390625 9.85473633 C76.92624756 9.84835648 76.09858887 9.84197662 75.24584961 9.83540344 C74.36034424 9.83429062 73.47483887 9.8331778 72.5625 9.83203125 C71.6454126 9.82870285 70.7283252 9.82537445 69.78344727 9.82194519 C67.84684754 9.81688866 65.91023913 9.81453647 63.97363281 9.81469727 C61.0109222 9.81250807 58.0485824 9.79433148 55.0859375 9.77539062 C53.20312627 9.77245699 51.32031328 9.770472 49.4375 9.76953125 C48.55199463 9.76234573 47.66648926 9.75516022 46.75415039 9.74775696 C45.9264917 9.75083359 45.09883301 9.75391022 44.24609375 9.75708008 C43.52091553 9.75565506 42.7957373 9.75423004 42.04858398 9.75276184 C39.64563889 10.0427669 38.05368318 10.73174044 36 12 C34.81308507 14.37382985 34.84427133 15.89178893 34.79467773 18.54150391 C34.77473251 19.48232819 34.75478729 20.42315247 34.73423767 21.39248657 C34.70916893 22.91910416 34.70916893 22.91910416 34.68359375 24.4765625 C34.66281265 25.51694672 34.64203156 26.55733093 34.62062073 27.62924194 C34.55510128 30.96109249 34.49622908 34.2930235 34.4375 37.625 C34.39431706 39.88021674 34.35070285 42.13542527 34.30664062 44.390625 C34.19860381 49.92700198 34.09954798 55.46343776 34 61 C48.52 60.67 63.04 60.34 78 60 C79.8844171 56.2311658 80.33429462 54.31987525 80.625 50.25 C80.69976563 49.26515625 80.77453125 48.2803125 80.8515625 47.265625 C80.92503906 46.14414062 80.92503906 46.14414062 81 45 C82.98 45 84.96 45 87 45 C87 58.53 87 72.06 87 86 C85.02 86 83.04 86 81 86 C80.91363281 85.08476563 80.82726563 84.16953125 80.73828125 83.2265625 C80.59777344 82.03804687 80.45726562 80.84953125 80.3125 79.625 C80.18488281 78.44164062 80.05726562 77.25828125 79.92578125 76.0390625 C79.34490711 72.90204908 79.34490711 72.90204908 77.01953125 71.8359375 C72.91019822 70.6982955 69.00858426 70.64370907 64.76171875 70.5859375 C63.88095169 70.56657135 63.00018463 70.5472052 62.09272766 70.5272522 C59.29108234 70.46767149 56.48939544 70.42115735 53.6875 70.375 C51.78318562 70.33680041 49.87888815 70.29774753 47.97460938 70.2578125 C43.31654428 70.16198767 38.65839832 70.0778774 34 70 C34.11750011 77.49320079 34.24233344 84.98625343 34.37231445 92.47924805 C34.41567967 95.02934994 34.45735356 97.57948116 34.49731445 100.12963867 C34.55497839 103.79094289 34.61868425 107.45209922 34.68359375 111.11328125 C34.70030624 112.2571077 34.71701874 113.40093414 34.73423767 114.579422 C34.7641555 116.17073189 34.7641555 116.17073189 34.79467773 117.79418945 C34.81799416 119.19650566 34.81799416 119.19650566 34.84178162 120.62715149 C34.90972708 123.14986513 34.90972708 123.14986513 36 126 C38.37632206 127.18816103 39.85451061 127.13916244 42.50634766 127.16113281 C43.44137115 127.17074036 44.37639465 127.1803479 45.3397522 127.19024658 C46.3542746 127.19449646 47.368797 127.19874634 48.4140625 127.203125 C49.97947281 127.21167511 49.97947281 127.21167511 51.57650757 127.22039795 C53.7907408 127.22985898 56.00498818 127.23638629 58.21923828 127.24023438 C61.59042392 127.24990086 64.96098981 127.28089803 68.33203125 127.3125 C70.48437138 127.31903396 72.63671588 127.32428289 74.7890625 127.328125 C76.29262802 127.3466452 76.29262802 127.3466452 77.8265686 127.36553955 C86.93723542 127.33687725 93.44402264 125.24005394 100.234375 118.984375 C102.95749232 115.92388032 104.41504083 112.76427802 106 109 C107.98 109 109.96 109 112 109 C111.50763455 119.17555262 108.89655135 126.57241513 106 137 C71.02 137 36.04 137 0 137 C0 135.02 0 133.04 0 131 C0.83144531 130.96261719 1.66289063 130.92523437 2.51953125 130.88671875 C3.60621094 130.82097656 4.69289063 130.75523437 5.8125 130.6875 C7.43091797 130.60048828 7.43091797 130.60048828 9.08203125 130.51171875 C12.32224981 129.94348765 13.0567717 129.55614598 15 127 C15.45042906 124.77277276 15.45042906 124.77277276 15.38095093 122.25561523 C15.39364014 120.79186966 15.39364014 120.79186966 15.40658569 119.29855347 C15.400513 118.22936676 15.39444031 117.16018005 15.38818359 116.05859375 C15.39606903 114.36804367 15.39606903 114.36804367 15.40411377 112.64334106 C15.41734655 108.90792084 15.40856376 105.17292476 15.3984375 101.4375 C15.40045728 98.84822508 15.40336792 96.25895071 15.40713501 93.66967773 C15.41156283 88.23903473 15.40539752 82.80855194 15.39111328 77.37792969 C15.37478637 71.09817543 15.3800748 64.81871336 15.3965925 58.53896618 C15.41184255 52.49957932 15.41023393 46.46033551 15.4014473 40.42092896 C15.39944184 37.85002604 15.40191659 35.27911569 15.40888596 32.70822144 C15.4164797 29.11908025 15.40492466 25.53050513 15.38818359 21.94140625 C15.39425629 20.87221954 15.40032898 19.80303284 15.40658569 18.70144653 C15.39812622 17.72561615 15.38966675 16.74978577 15.38095093 15.74438477 C15.37925431 14.47124168 15.37925431 14.47124168 15.37752342 13.17237854 C14.91121441 10.48910216 14.15476822 9.62284168 12 8 C9.04478923 7.20531949 9.04478923 7.20531949 5.8125 6.8125 C4.18248047 6.57466797 4.18248047 6.57466797 2.51953125 6.33203125 C1.27236328 6.16767578 1.27236328 6.16767578 0 6 C0 4.02 0 2.04 0 0 Z " fill="#1C4E8B" transform="translate(1795,654)"/>
<path d="M0 0 C34.32 0 68.64 0 104 0 C104.8562384 3.4249536 105.18646653 6.15081545 105.31640625 9.640625 C105.35830078 10.71054687 105.40019531 11.78046875 105.44335938 12.8828125 C105.48267578 13.99398437 105.52199219 15.10515625 105.5625 16.25 C105.60568359 17.37664063 105.64886719 18.50328125 105.69335938 19.6640625 C105.79932015 22.44258954 105.90139142 25.22120391 106 28 C103.69 28.33 101.38 28.66 99 29 C98.84144531 28.33613281 98.68289063 27.67226563 98.51953125 26.98828125 C96.67553913 20.00963702 94.50364981 16.39273646 88.4375 12.25 C84.85832308 10.41452466 81.75324786 9.87575831 77.75390625 9.85473633 C76.92624756 9.84835648 76.09858887 9.84197662 75.24584961 9.83540344 C74.36034424 9.83429062 73.47483887 9.8331778 72.5625 9.83203125 C71.6454126 9.82870285 70.7283252 9.82537445 69.78344727 9.82194519 C67.84684754 9.81688866 65.91023913 9.81453647 63.97363281 9.81469727 C61.0109222 9.81250807 58.0485824 9.79433148 55.0859375 9.77539062 C53.20312627 9.77245699 51.32031328 9.770472 49.4375 9.76953125 C48.55199463 9.76234573 47.66648926 9.75516022 46.75415039 9.74775696 C45.9264917 9.75083359 45.09883301 9.75391022 44.24609375 9.75708008 C43.52091553 9.75565506 42.7957373 9.75423004 42.04858398 9.75276184 C39.64563889 10.0427669 38.05368318 10.73174044 36 12 C34.81308507 14.37382985 34.84427133 15.89178893 34.79467773 18.54150391 C34.77473251 19.48232819 34.75478729 20.42315247 34.73423767 21.39248657 C34.70916893 22.91910416 34.70916893 22.91910416 34.68359375 24.4765625 C34.66281265 25.51694672 34.64203156 26.55733093 34.62062073 27.62924194 C34.55510128 30.96109249 34.49622908 34.2930235 34.4375 37.625 C34.39431706 39.88021674 34.35070285 42.13542527 34.30664062 44.390625 C34.19860381 49.92700198 34.09954798 55.46343776 34 61 C48.52 60.67 63.04 60.34 78 60 C79.8844171 56.2311658 80.33429462 54.31987525 80.625 50.25 C80.69976563 49.26515625 80.77453125 48.2803125 80.8515625 47.265625 C80.92503906 46.14414062 80.92503906 46.14414062 81 45 C82.98 45 84.96 45 87 45 C87 58.53 87 72.06 87 86 C85.02 86 83.04 86 81 86 C80.91363281 85.08476563 80.82726563 84.16953125 80.73828125 83.2265625 C80.59777344 82.03804687 80.45726562 80.84953125 80.3125 79.625 C80.18488281 78.44164062 80.05726562 77.25828125 79.92578125 76.0390625 C79.34490711 72.90204908 79.34490711 72.90204908 77.01953125 71.8359375 C72.91019822 70.6982955 69.00858426 70.64370907 64.76171875 70.5859375 C63.88095169 70.56657135 63.00018463 70.5472052 62.09272766 70.5272522 C59.29108234 70.46767149 56.48939544 70.42115735 53.6875 70.375 C51.78318562 70.33680041 49.87888815 70.29774753 47.97460938 70.2578125 C43.31654428 70.16198767 38.65839832 70.0778774 34 70 C34.11750011 77.49320079 34.24233344 84.98625343 34.37231445 92.47924805 C34.41567967 95.02934994 34.45735356 97.57948116 34.49731445 100.12963867 C34.55497839 103.79094289 34.61868425 107.45209922 34.68359375 111.11328125 C34.70030624 112.2571077 34.71701874 113.40093414 34.73423767 114.579422 C34.7641555 116.17073189 34.7641555 116.17073189 34.79467773 117.79418945 C34.81799416 119.19650566 34.81799416 119.19650566 34.84178162 120.62715149 C34.90972708 123.14986513 34.90972708 123.14986513 36 126 C38.37632206 127.18816103 39.85451061 127.13916244 42.50634766 127.16113281 C43.44137115 127.17074036 44.37639465 127.1803479 45.3397522 127.19024658 C46.3542746 127.19449646 47.368797 127.19874634 48.4140625 127.203125 C49.97947281 127.21167511 49.97947281 127.21167511 51.57650757 127.22039795 C53.7907408 127.22985898 56.00498818 127.23638629 58.21923828 127.24023438 C61.59042392 127.24990086 64.96098981 127.28089803 68.33203125 127.3125 C70.48437138 127.31903396 72.63671588 127.32428289 74.7890625 127.328125 C76.29262802 127.3466452 76.29262802 127.3466452 77.8265686 127.36553955 C86.93723542 127.33687725 93.44402264 125.24005394 100.234375 118.984375 C102.95749232 115.92388032 104.41504083 112.76427802 106 109 C107.98 109 109.96 109 112 109 C111.50763455 119.17555262 108.89655135 126.57241513 106 137 C71.02 137 36.04 137 0 137 C0 135.02 0 133.04 0 131 C0.83144531 130.96261719 1.66289063 130.92523437 2.51953125 130.88671875 C3.60621094 130.82097656 4.69289063 130.75523437 5.8125 130.6875 C7.43091797 130.60048828 7.43091797 130.60048828 9.08203125 130.51171875 C12.32224981 129.94348765 13.0567717 129.55614598 15 127 C15.45042906 124.77277276 15.45042906 124.77277276 15.38095093 122.25561523 C15.39364014 120.79186966 15.39364014 120.79186966 15.40658569 119.29855347 C15.400513 118.22936676 15.39444031 117.16018005 15.38818359 116.05859375 C15.39606903 114.36804367 15.39606903 114.36804367 15.40411377 112.64334106 C15.41734655 108.90792084 15.40856376 105.17292476 15.3984375 101.4375 C15.40045728 98.84822508 15.40336792 96.25895071 15.40713501 93.66967773 C15.41156283 88.23903473 15.40539752 82.80855194 15.39111328 77.37792969 C15.37478637 71.09817543 15.3800748 64.81871336 15.3965925 58.53896618 C15.41184255 52.49957932 15.41023393 46.46033551 15.4014473 40.42092896 C15.39944184 37.85002604 15.40191659 35.27911569 15.40888596 32.70822144 C15.4164797 29.11908025 15.40492466 25.53050513 15.38818359 21.94140625 C15.39425629 20.87221954 15.40032898 19.80303284 15.40658569 18.70144653 C15.39812622 17.72561615 15.38966675 16.74978577 15.38095093 15.74438477 C15.37925431 14.47124168 15.37925431 14.47124168 15.37752342 13.17237854 C14.91121441 10.48910216 14.15476822 9.62284168 12 8 C9.04478923 7.20531949 9.04478923 7.20531949 5.8125 6.8125 C4.18248047 6.57466797 4.18248047 6.57466797 2.51953125 6.33203125 C1.27236328 6.16767578 1.27236328 6.16767578 0 6 C0 4.02 0 2.04 0 0 Z " fill="#1C4E8B" transform="translate(1200,654)"/>
<path d="M0 0 C34.32 0 68.64 0 104 0 C104.8562384 3.4249536 105.18646653 6.15081545 105.31640625 9.640625 C105.35830078 10.71054687 105.40019531 11.78046875 105.44335938 12.8828125 C105.48267578 13.99398437 105.52199219 15.10515625 105.5625 16.25 C105.60568359 17.37664063 105.64886719 18.50328125 105.69335938 19.6640625 C105.79932015 22.44258954 105.90139142 25.22120391 106 28 C103.69 28.33 101.38 28.66 99 29 C98.84144531 28.33613281 98.68289063 27.67226563 98.51953125 26.98828125 C96.67553913 20.00963702 94.50364981 16.39273646 88.4375 12.25 C84.85832308 10.41452466 81.75324786 9.87575831 77.75390625 9.85473633 C76.92624756 9.84835648 76.09858887 9.84197662 75.24584961 9.83540344 C74.36034424 9.83429062 73.47483887 9.8331778 72.5625 9.83203125 C71.6454126 9.82870285 70.7283252 9.82537445 69.78344727 9.82194519 C67.84684754 9.81688866 65.91023913 9.81453647 63.97363281 9.81469727 C61.0109222 9.81250807 58.0485824 9.79433148 55.0859375 9.77539062 C53.20312627 9.77245699 51.32031328 9.770472 49.4375 9.76953125 C48.55199463 9.76234573 47.66648926 9.75516022 46.75415039 9.74775696 C45.9264917 9.75083359 45.09883301 9.75391022 44.24609375 9.75708008 C43.52091553 9.75565506 42.7957373 9.75423004 42.04858398 9.75276184 C39.64563889 10.0427669 38.05368318 10.73174044 36 12 C34.81308507 14.37382985 34.84427133 15.89178893 34.79467773 18.54150391 C34.77473251 19.48232819 34.75478729 20.42315247 34.73423767 21.39248657 C34.70916893 22.91910416 34.70916893 22.91910416 34.68359375 24.4765625 C34.66281265 25.51694672 34.64203156 26.55733093 34.62062073 27.62924194 C34.55510128 30.96109249 34.49622908 34.2930235 34.4375 37.625 C34.39431706 39.88021674 34.35070285 42.13542527 34.30664062 44.390625 C34.19860381 49.92700198 34.09954798 55.46343776 34 61 C48.52 60.67 63.04 60.34 78 60 C79.8844171 56.2311658 80.33429462 54.31987525 80.625 50.25 C80.69976563 49.26515625 80.77453125 48.2803125 80.8515625 47.265625 C80.92503906 46.14414062 80.92503906 46.14414062 81 45 C82.98 45 84.96 45 87 45 C87 58.53 87 72.06 87 86 C85.02 86 83.04 86 81 86 C80.91363281 85.08476563 80.82726562 84.16953125 80.73828125 83.2265625 C80.59777344 82.03804687 80.45726562 80.84953125 80.3125 79.625 C80.18488281 78.44164062 80.05726563 77.25828125 79.92578125 76.0390625 C79.34490711 72.90204908 79.34490711 72.90204908 77.01953125 71.8359375 C72.91019822 70.6982955 69.00858426 70.64370907 64.76171875 70.5859375 C63.88095169 70.56657135 63.00018463 70.5472052 62.09272766 70.5272522 C59.29108234 70.46767149 56.48939544 70.42115735 53.6875 70.375 C51.78318562 70.33680041 49.87888815 70.29774753 47.97460938 70.2578125 C43.31654428 70.16198767 38.65839832 70.0778774 34 70 C34.11750011 77.49320079 34.24233344 84.98625343 34.37231445 92.47924805 C34.41567967 95.02934994 34.45735356 97.57948116 34.49731445 100.12963867 C34.55497839 103.79094289 34.61868425 107.45209922 34.68359375 111.11328125 C34.70030624 112.2571077 34.71701874 113.40093414 34.73423767 114.579422 C34.7641555 116.17073189 34.7641555 116.17073189 34.79467773 117.79418945 C34.81799416 119.19650566 34.81799416 119.19650566 34.84178162 120.62715149 C34.90972708 123.14986513 34.90972708 123.14986513 36 126 C38.37632206 127.18816103 39.85451061 127.13916244 42.50634766 127.16113281 C43.44137115 127.17074036 44.37639465 127.1803479 45.3397522 127.19024658 C46.3542746 127.19449646 47.368797 127.19874634 48.4140625 127.203125 C49.97947281 127.21167511 49.97947281 127.21167511 51.57650757 127.22039795 C53.7907408 127.22985898 56.00498818 127.23638629 58.21923828 127.24023438 C61.59042392 127.24990086 64.96098981 127.28089803 68.33203125 127.3125 C70.48437138 127.31903396 72.63671588 127.32428289 74.7890625 127.328125 C76.29262802 127.3466452 76.29262802 127.3466452 77.8265686 127.36553955 C86.93723542 127.33687725 93.44402264 125.24005394 100.234375 118.984375 C102.95749232 115.92388032 104.41504083 112.76427802 106 109 C107.98 109 109.96 109 112 109 C111.50763455 119.17555262 108.89655135 126.57241513 106 137 C71.02 137 36.04 137 0 137 C0 135.02 0 133.04 0 131 C0.83144531 130.96261719 1.66289063 130.92523437 2.51953125 130.88671875 C3.60621094 130.82097656 4.69289063 130.75523437 5.8125 130.6875 C7.43091797 130.60048828 7.43091797 130.60048828 9.08203125 130.51171875 C12.32224981 129.94348765 13.0567717 129.55614598 15 127 C15.45042906 124.77277276 15.45042906 124.77277276 15.38095093 122.25561523 C15.39364014 120.79186966 15.39364014 120.79186966 15.40658569 119.29855347 C15.400513 118.22936676 15.39444031 117.16018005 15.38818359 116.05859375 C15.39606903 114.36804367 15.39606903 114.36804367 15.40411377 112.64334106 C15.41734655 108.90792084 15.40856376 105.17292476 15.3984375 101.4375 C15.40045728 98.84822508 15.40336792 96.25895071 15.40713501 93.66967773 C15.41156283 88.23903473 15.40539752 82.80855194 15.39111328 77.37792969 C15.37478637 71.09817543 15.3800748 64.81871336 15.3965925 58.53896618 C15.41184255 52.49957932 15.41023393 46.46033551 15.4014473 40.42092896 C15.39944184 37.85002604 15.40191659 35.27911569 15.40888596 32.70822144 C15.4164797 29.11908025 15.40492466 25.53050513 15.38818359 21.94140625 C15.39425629 20.87221954 15.40032898 19.80303284 15.40658569 18.70144653 C15.39812622 17.72561615 15.38966675 16.74978577 15.38095093 15.74438477 C15.37925431 14.47124168 15.37925431 14.47124168 15.37752342 13.17237854 C14.91121441 10.48910216 14.15476822 9.62284168 12 8 C9.04478923 7.20531949 9.04478923 7.20531949 5.8125 6.8125 C4.18248047 6.57466797 4.18248047 6.57466797 2.51953125 6.33203125 C1.27236328 6.16767578 1.27236328 6.16767578 0 6 C0 4.02 0 2.04 0 0 Z " fill="#1C4E8B" transform="translate(762,654)"/>
<path d="M0 0 C6.4372225 -0.25182289 12.28181096 0.41809793 18.5078125 1.9375 C19.16144775 2.09436279 19.81508301 2.25122559 20.48852539 2.4128418 C25.43429861 3.7256282 28.4592071 5.51686834 33.1328125 8.1875 C32.4728125 15.7775 31.8128125 23.3675 31.1328125 31.1875 C28.4928125 31.1875 25.8528125 31.1875 23.1328125 31.1875 C22.83890625 30.19169922 22.83890625 30.19169922 22.5390625 29.17578125 C20.57989163 23.39116038 18.81768373 19.92589901 13.30078125 17.08203125 C2.01939582 12.42718933 -13.0929575 12.45947954 -24.65625 16.1953125 C-28.58843023 17.95993048 -31.89396554 20.24105608 -33.8671875 24.1875 C-34.5899289 28.14615178 -34.67385005 31.66253724 -32.76171875 35.27734375 C-23.73052251 46.53846499 -7.85555657 52.27425862 4.91796875 58.1875 C20.52936284 65.44070669 35.37735973 73.52218883 42.1328125 90.1875 C45.20822553 99.74463796 43.31813238 110.42962528 39.13671875 119.30078125 C32.32577488 131.43793037 19.27206043 138.41160126 6.2578125 142.125 C-13.14753272 145.92996965 -31.95792938 143.49871051 -49.57421875 134.75 C-52.16492182 132.9846146 -52.80004329 132.09405969 -53.8671875 129.1875 C-53.81884766 126.53027344 -53.81884766 126.53027344 -53.40625 123.546875 C-53.26445313 122.47695313 -53.12265625 121.40703125 -52.9765625 120.3046875 C-52.81671875 119.19351563 -52.656875 118.08234375 -52.4921875 116.9375 C-52.34007812 115.81085938 -52.18796875 114.68421875 -52.03125 113.5234375 C-51.65425292 110.74308405 -51.26584832 107.96481594 -50.8671875 105.1875 C-48.2271875 105.1875 -45.5871875 105.1875 -42.8671875 105.1875 C-42.70863281 105.77917969 -42.55007813 106.37085938 -42.38671875 106.98046875 C-40.45217701 113.53225929 -38.34865454 117.0900368 -32.33203125 120.71484375 C-17.29440131 128.81812523 0.20536892 130.92327008 16.67578125 126.1015625 C22.04376931 124.10456853 26.25187721 121.17373416 29.1328125 116.1875 C30.45369544 109.96577099 28.68887882 104.95982314 25.65625 99.53125 C20.1100839 90.99868677 11.89647933 86.85415259 3.1328125 82.1875 C2.07578125 81.62401855 1.01875 81.06053711 -0.0703125 80.47998047 C-0.64537033 80.17357635 -1.22042816 79.86717224 -1.81291199 79.55148315 C-3.02656647 78.90463185 -4.24003377 78.25742926 -5.45332336 77.6098938 C-8.51591403 75.97569825 -11.58103685 74.34683939 -14.65307617 72.73046875 C-38.46113609 60.10797071 -38.46113609 60.10797071 -43.6171875 52.625 C-44.02453125 52.04621094 -44.431875 51.46742188 -44.8515625 50.87109375 C-48.63880872 44.59300483 -47.77690056 34.17464239 -46.18359375 27.19140625 C-42.66913333 17.8438165 -36.88967191 10.61126659 -27.8671875 6.1875 C-18.72859484 2.56433405 -9.76873494 0.63882735 0 0 Z " fill="#1C4D8B" transform="translate(1376.8671875,650.8125)"/>
<path d="M0 0 C8.58 0 17.16 0 26 0 C26 61.05 26 122.1 26 185 C17.42 185 8.84 185 0 185 C0 123.95 0 62.9 0 0 Z " fill="#134787" transform="translate(638,384)"/>
<path d="M0 0 C3.43712806 1.71856403 4.01437421 5.83473366 5.28125 9.2890625 C5.60667282 10.15836899 5.93209564 11.02767548 6.26737976 11.92332458 C6.97684263 13.8207146 7.68309265 15.71930824 8.38656616 17.618927 C9.89897414 21.70215909 11.42708875 25.77945262 12.95439148 29.85713196 C13.75522219 31.9955862 14.55526715 34.13433485 15.35456848 36.27336121 C21.39213633 52.4225223 27.58558771 68.51228018 33.77906799 84.60214233 C35.89873233 90.11421569 37.99879172 95.63319994 40.08018494 101.15983582 C41.35152666 104.5307948 42.63310012 107.89780543 43.91665649 111.26412964 C44.50606519 112.81743387 45.09081491 114.37251534 45.67050171 115.92947388 C46.46212546 118.05420824 47.2700513 120.17204013 48.08203125 122.2890625 C48.52780518 123.47193848 48.9735791 124.65481445 49.43286133 125.87353516 C51.17456179 129.34825336 53.04787502 131.48951107 56 134 C58.87099682 134.80456863 58.87099682 134.80456863 61.8125 134.8125 C62.78832031 134.86019531 63.76414062 134.90789062 64.76953125 134.95703125 C65.50558594 134.97121094 66.24164062 134.98539063 67 135 C67 136.98 67 138.96 67 141 C50.17 141 33.34 141 16 141 C16 139.02 16 137.04 16 135 C16.75925781 134.95101562 17.51851562 134.90203125 18.30078125 134.8515625 C19.79158203 134.73941406 19.79158203 134.73941406 21.3125 134.625 C22.79169922 134.52058594 22.79169922 134.52058594 24.30078125 134.4140625 C27.21528433 134.16134528 27.21528433 134.16134528 30 132 C29.42754798 126.57386217 28.07132871 122.00492352 26.05859375 116.94921875 C25.6278933 115.83919243 25.6278933 115.83919243 25.18849182 114.70674133 C24.27847408 112.36420029 23.35864687 110.02568463 22.4375 107.6875 C21.51423814 105.33093598 20.59313171 102.97357787 19.67579651 100.61470032 C19.10644661 99.15195004 18.53343078 97.69062033 17.95640564 96.23088074 C16 91.2229928 16 91.2229928 16 89 C0.16 89.33 -15.68 89.66 -32 90 C-34.84625 97.2703125 -34.84625 97.2703125 -37.75 104.6875 C-38.34006836 106.18756592 -38.93013672 107.68763184 -39.53808594 109.2331543 C-42.72253846 117.41521908 -45.5242577 125.5692562 -48 134 C-43.38 134.33 -38.76 134.66 -34 135 C-34 136.98 -34 138.96 -34 141 C-46.87 141 -59.74 141 -73 141 C-73 139.02 -73 137.04 -73 135 C-72.25234375 134.90203125 -71.5046875 134.8040625 -70.734375 134.703125 C-69.25710938 134.47882813 -69.25710938 134.47882813 -67.75 134.25 C-66.28820313 134.04117188 -66.28820313 134.04117188 -64.796875 133.828125 C-61.43907616 132.83391641 -60.28911981 131.61601489 -58 129 C-56.75017072 126.77607215 -56.75017072 126.77607215 -55.80078125 124.28515625 C-55.40536133 123.31288086 -55.00994141 122.34060547 -54.60253906 121.33886719 C-54.17682617 120.25766602 -53.75111328 119.17646484 -53.3125 118.0625 C-52.84682617 116.90008789 -52.38115234 115.73767578 -51.90136719 114.54003906 C-46.22302386 100.29239514 -40.87637515 85.91274463 -35.48214722 71.55592346 C-30.89569381 59.34984979 -26.24969238 47.16772697 -21.5625 35 C-21.24140259 34.16585571 -20.92030518 33.33171143 -20.58947754 32.47229004 C-19.68655757 30.12712676 -18.78296737 27.78222358 -17.87890625 25.4375 C-17.48322197 24.41097321 -17.48322197 24.41097321 -17.07954407 23.3637085 C-16.38878226 21.57486947 -15.69453978 19.78737557 -15 18 C-14.66991943 17.07058594 -14.33983887 16.14117188 -13.99975586 15.18359375 C-12.74972519 12.45336804 -10.86702202 11.1918976 -8.51953125 9.3984375 C-6.80622206 7.82166452 -5.89725251 6.30223449 -4.8125 4.25 C-3 1 -3 1 0 0 Z M-9 27 C-11.8506367 34.38639153 -14.69869388 41.77377376 -17.54492188 49.16186523 C-18.51418506 51.67746973 -19.48428243 54.19275019 -20.45507812 56.70776367 C-21.84661503 60.31369018 -23.23602293 63.92043057 -24.625 67.52734375 C-25.06247559 68.65961899 -25.49995117 69.79189423 -25.95068359 70.95848083 C-26.55130615 72.51998619 -26.55130615 72.51998619 -27.1640625 74.11303711 C-27.51936035 75.03459091 -27.8746582 75.95614471 -28.24072266 76.90562439 C-29.05680426 78.78539455 -29.05680426 78.78539455 -29 80 C-15.47 80 -1.94 80 12 80 C8.04643728 68.40887293 3.89484271 56.91592913 -0.50085449 45.48635864 C-1.04196674 44.07874657 -1.58127416 42.67043937 -2.11877441 41.26144409 C-2.88211877 39.26320708 -3.65278116 37.26795604 -4.42578125 35.2734375 C-5.09734253 33.53199463 -5.09734253 33.53199463 -5.7824707 31.75537109 C-6.8355172 28.92382756 -6.8355172 28.92382756 -9 27 Z " fill="#1D4E8C" transform="translate(1608,650)"/>
<path d="M0 0 C3.43712806 1.71856403 4.01437421 5.83473366 5.28125 9.2890625 C5.60667282 10.15836899 5.93209564 11.02767548 6.26737976 11.92332458 C6.97684263 13.8207146 7.68309265 15.71930824 8.38656616 17.618927 C9.89897414 21.70215909 11.42708875 25.77945262 12.95439148 29.85713196 C13.75522219 31.9955862 14.55526715 34.13433485 15.35456848 36.27336121 C21.39213633 52.4225223 27.58558771 68.51228018 33.77906799 84.60214233 C35.89873233 90.11421569 37.99879172 95.63319994 40.08018494 101.15983582 C41.35152666 104.5307948 42.63310012 107.89780543 43.91665649 111.26412964 C44.50606519 112.81743387 45.09081491 114.37251534 45.67050171 115.92947388 C46.46212546 118.05420824 47.2700513 120.17204013 48.08203125 122.2890625 C48.52780518 123.47193848 48.9735791 124.65481445 49.43286133 125.87353516 C51.17456179 129.34825336 53.04787502 131.48951107 56 134 C58.87099682 134.80456863 58.87099682 134.80456863 61.8125 134.8125 C62.78832031 134.86019531 63.76414062 134.90789062 64.76953125 134.95703125 C65.50558594 134.97121094 66.24164062 134.98539063 67 135 C67 136.98 67 138.96 67 141 C50.17 141 33.34 141 16 141 C16 139.02 16 137.04 16 135 C16.75925781 134.95101562 17.51851562 134.90203125 18.30078125 134.8515625 C19.79158203 134.73941406 19.79158203 134.73941406 21.3125 134.625 C22.79169922 134.52058594 22.79169922 134.52058594 24.30078125 134.4140625 C27.21528433 134.16134528 27.21528433 134.16134528 30 132 C29.42754798 126.57386217 28.07132871 122.00492352 26.05859375 116.94921875 C25.6278933 115.83919243 25.6278933 115.83919243 25.18849182 114.70674133 C24.27847408 112.36420029 23.35864687 110.02568463 22.4375 107.6875 C21.51423814 105.33093598 20.59313171 102.97357787 19.67579651 100.61470032 C19.10644661 99.15195004 18.53343078 97.69062033 17.95640564 96.23088074 C16 91.2229928 16 91.2229928 16 89 C0.16 89.33 -15.68 89.66 -32 90 C-34.84625 97.2703125 -34.84625 97.2703125 -37.75 104.6875 C-38.34006836 106.18756592 -38.93013672 107.68763184 -39.53808594 109.2331543 C-42.72253846 117.41521908 -45.5242577 125.5692562 -48 134 C-43.38 134.33 -38.76 134.66 -34 135 C-34 136.98 -34 138.96 -34 141 C-46.87 141 -59.74 141 -73 141 C-73 139.02 -73 137.04 -73 135 C-72.25234375 134.90203125 -71.5046875 134.8040625 -70.734375 134.703125 C-69.25710938 134.47882813 -69.25710938 134.47882813 -67.75 134.25 C-66.28820312 134.04117188 -66.28820312 134.04117188 -64.796875 133.828125 C-61.43907616 132.83391641 -60.28911981 131.61601489 -58 129 C-56.75017072 126.77607215 -56.75017072 126.77607215 -55.80078125 124.28515625 C-55.40536133 123.31288086 -55.00994141 122.34060547 -54.60253906 121.33886719 C-54.17682617 120.25766602 -53.75111328 119.17646484 -53.3125 118.0625 C-52.84682617 116.90008789 -52.38115234 115.73767578 -51.90136719 114.54003906 C-46.22302386 100.29239514 -40.87637515 85.91274463 -35.48214722 71.55592346 C-30.89569381 59.34984979 -26.24969238 47.16772697 -21.5625 35 C-21.24140259 34.16585571 -20.92030518 33.33171143 -20.58947754 32.47229004 C-19.68655757 30.12712676 -18.78296737 27.78222358 -17.87890625 25.4375 C-17.48322197 24.41097321 -17.48322197 24.41097321 -17.07954407 23.3637085 C-16.38878226 21.57486947 -15.69453978 19.78737557 -15 18 C-14.66991943 17.07058594 -14.33983887 16.14117188 -13.99975586 15.18359375 C-12.74972519 12.45336804 -10.86702202 11.1918976 -8.51953125 9.3984375 C-6.80622206 7.82166452 -5.89725251 6.30223449 -4.8125 4.25 C-3 1 -3 1 0 0 Z M-9 27 C-11.8506367 34.38639153 -14.69869388 41.77377376 -17.54492188 49.16186523 C-18.51418506 51.67746973 -19.48428243 54.19275019 -20.45507812 56.70776367 C-21.84661503 60.31369018 -23.23602293 63.92043057 -24.625 67.52734375 C-25.06247559 68.65961899 -25.49995117 69.79189423 -25.95068359 70.95848083 C-26.55130615 72.51998619 -26.55130615 72.51998619 -27.1640625 74.11303711 C-27.51936035 75.03459091 -27.8746582 75.95614471 -28.24072266 76.90562439 C-29.05680426 78.78539455 -29.05680426 78.78539455 -29 80 C-15.47 80 -1.94 80 12 80 C8.04643728 68.40887293 3.89484271 56.91592913 -0.50085449 45.48635864 C-1.04196674 44.07874657 -1.58127416 42.67043937 -2.11877441 41.26144409 C-2.88211877 39.26320708 -3.65278116 37.26795604 -4.42578125 35.2734375 C-5.09734253 33.53199463 -5.09734253 33.53199463 -5.7824707 31.75537109 C-6.8355172 28.92382756 -6.8355172 28.92382756 -9 27 Z " fill="#1D4E8C" transform="translate(954,650)"/>
<path d="M0 0 C36.63 0 73.26 0 111 0 C111.99 13.86 111.99 13.86 113 28 C110.69 28.33 108.38 28.66 106 29 C105.85304688 28.43152344 105.70609375 27.86304688 105.5546875 27.27734375 C103.9037625 21.59398698 101.82379003 16.65811975 97 13 C90.92115627 10.16848647 85.90256274 9.55695521 79.25 9.6875 C78.41339844 9.68427734 77.57679687 9.68105469 76.71484375 9.67773438 C71.075121 9.70616837 71.075121 9.70616837 66 12 C65.05536056 14.83391831 64.87241186 16.5743909 64.86628723 19.50987244 C64.86202225 20.43377274 64.85775726 21.35767303 64.85336304 22.30957031 C64.85381622 23.32108154 64.85426941 24.33259277 64.85473633 25.37475586 C64.85137772 26.44166153 64.8480191 27.5085672 64.84455872 28.60780334 C64.83504009 32.14349524 64.8331052 35.67913983 64.83203125 39.21484375 C64.82881952 41.66720093 64.82545551 44.11955791 64.82194519 46.57191467 C64.81595179 51.71583501 64.81410553 56.85973853 64.81469727 62.00366211 C64.81479895 68.60257034 64.80114128 75.20137112 64.78392506 81.80025387 C64.77282011 86.86593625 64.77077759 91.93159253 64.77130699 96.99728584 C64.77012481 99.43060235 64.76568977 101.86391948 64.75797462 104.29722404 C64.74820437 107.69684305 64.75104105 111.09622702 64.75708008 114.49584961 C64.75146057 115.50533661 64.74584106 116.51482361 64.74005127 117.55490112 C64.74424576 118.48162125 64.74844025 119.40834137 64.75276184 120.36314392 C64.75221707 121.16673812 64.75167231 121.97033232 64.75111103 122.79827785 C65.03221619 125.2849909 65.6760119 126.8846973 67 129 C69.70183055 130.35091528 72.11808206 130.33858058 75.125 130.5625 C76.22070312 130.64628906 77.31640625 130.73007812 78.4453125 130.81640625 C79.28835938 130.87699219 80.13140625 130.93757812 81 131 C81 132.98 81 134.96 81 137 C63.84 137 46.68 137 29 137 C29 135.02 29 133.04 29 131 C30.35544922 130.94392578 30.35544922 130.94392578 31.73828125 130.88671875 C32.91777344 130.82097656 34.09726563 130.75523437 35.3125 130.6875 C37.07013672 130.60048828 37.07013672 130.60048828 38.86328125 130.51171875 C42.2633504 129.95703748 42.99430828 129.66992058 45 127 C45.44221197 124.76327196 45.44221197 124.76327196 45.36076355 122.23542786 C45.36694954 120.76517906 45.36694954 120.76517906 45.3732605 119.26522827 C45.36247467 118.19132843 45.35168884 117.11742859 45.34057617 116.01098633 C45.34101425 114.87913406 45.34145233 113.7472818 45.34190369 112.58113098 C45.33980978 108.83125701 45.31644966 105.08182734 45.29296875 101.33203125 C45.28737496 98.73557276 45.28310384 96.1391111 45.28010559 93.54264832 C45.26981243 87.40153503 45.24615625 81.26060574 45.21605712 75.11956185 C45.18253323 68.12811224 45.16603219 61.13665502 45.15097082 54.14514506 C45.11960712 39.76334404 45.06683407 25.38167771 45 11 C40.53523515 9.83059786 36.35110672 9.77835813 31.75 9.75 C30.92886719 9.729375 30.10773438 9.70875 29.26171875 9.6875 C22.83084659 9.64673377 17.29274073 10.50295104 12.01171875 14.5078125 C8.33312334 19.00025645 6.45089811 23.3873152 5 29 C2.69 28.67 0.38 28.34 -2 28 C-1.34 18.76 -0.68 9.52 0 0 Z " fill="#194B8A" transform="translate(1673,654)"/>
<path d="M0 0 C36.63 0 73.26 0 111 0 C111.99 13.86 111.99 13.86 113 28 C110.69 28.33 108.38 28.66 106 29 C105.85304688 28.43152344 105.70609375 27.86304688 105.5546875 27.27734375 C103.9037625 21.59398698 101.82379003 16.65811975 97 13 C90.92115627 10.16848647 85.90256274 9.55695521 79.25 9.6875 C78.41339844 9.68427734 77.57679687 9.68105469 76.71484375 9.67773438 C71.075121 9.70616837 71.075121 9.70616837 66 12 C65.05536056 14.83391831 64.87241186 16.5743909 64.86628723 19.50987244 C64.86202225 20.43377274 64.85775726 21.35767303 64.85336304 22.30957031 C64.85381622 23.32108154 64.85426941 24.33259277 64.85473633 25.37475586 C64.85137772 26.44166153 64.8480191 27.5085672 64.84455872 28.60780334 C64.83504009 32.14349524 64.8331052 35.67913983 64.83203125 39.21484375 C64.82881952 41.66720093 64.82545551 44.11955791 64.82194519 46.57191467 C64.81595179 51.71583501 64.81410553 56.85973853 64.81469727 62.00366211 C64.81479895 68.60257034 64.80114128 75.20137112 64.78392506 81.80025387 C64.77282011 86.86593625 64.77077759 91.93159253 64.77130699 96.99728584 C64.77012481 99.43060235 64.76568977 101.86391948 64.75797462 104.29722404 C64.74820437 107.69684305 64.75104105 111.09622702 64.75708008 114.49584961 C64.75146057 115.50533661 64.74584106 116.51482361 64.74005127 117.55490112 C64.74424576 118.48162125 64.74844025 119.40834137 64.75276184 120.36314392 C64.75221707 121.16673812 64.75167231 121.97033232 64.75111103 122.79827785 C65.03221619 125.2849909 65.6760119 126.8846973 67 129 C69.70183055 130.35091528 72.11808206 130.33858058 75.125 130.5625 C76.22070312 130.64628906 77.31640625 130.73007812 78.4453125 130.81640625 C79.28835938 130.87699219 80.13140625 130.93757812 81 131 C81 132.98 81 134.96 81 137 C63.84 137 46.68 137 29 137 C29 135.02 29 133.04 29 131 C30.35544922 130.94392578 30.35544922 130.94392578 31.73828125 130.88671875 C32.91777344 130.82097656 34.09726563 130.75523437 35.3125 130.6875 C37.07013672 130.60048828 37.07013672 130.60048828 38.86328125 130.51171875 C42.2633504 129.95703748 42.99430828 129.66992058 45 127 C45.44221197 124.76327196 45.44221197 124.76327196 45.36076355 122.23542786 C45.36694954 120.76517906 45.36694954 120.76517906 45.3732605 119.26522827 C45.36247467 118.19132843 45.35168884 117.11742859 45.34057617 116.01098633 C45.34101425 114.87913406 45.34145233 113.7472818 45.34190369 112.58113098 C45.33980978 108.83125701 45.31644966 105.08182734 45.29296875 101.33203125 C45.28737496 98.73557276 45.28310384 96.1391111 45.28010559 93.54264832 C45.26981243 87.40153503 45.24615625 81.26060574 45.21605712 75.11956185 C45.18253323 68.12811224 45.16603219 61.13665502 45.15097082 54.14514506 C45.11960712 39.76334404 45.06683407 25.38167771 45 11 C40.53523515 9.83059786 36.35110672 9.77835813 31.75 9.75 C30.92886719 9.729375 30.10773438 9.70875 29.26171875 9.6875 C22.83084659 9.64673377 17.29274073 10.50295104 12.01171875 14.5078125 C8.33312334 19.00025645 6.45089811 23.3873152 5 29 C2.69 28.67 0.38 28.34 -2 28 C-1.34 18.76 -0.68 9.52 0 0 Z " fill="#194B8A" transform="translate(1429,654)"/>
<path d="M0 0 C16.83 0 33.66 0 51 0 C51 2.31 51 4.62 51 7 C49.62714844 7.09087891 49.62714844 7.09087891 48.2265625 7.18359375 C47.03804687 7.26738281 45.84953125 7.35117187 44.625 7.4375 C42.84996094 7.55931641 42.84996094 7.55931641 41.0390625 7.68359375 C38.08481099 7.81084936 38.08481099 7.81084936 36 9 C35.05028548 11.84914355 34.87438773 13.60144709 34.87301636 16.55456543 C34.87019653 17.48832504 34.86737671 18.42208466 34.86447144 19.38414001 C34.86649567 20.40657303 34.8685199 21.42900604 34.87060547 22.48242188 C34.86885315 23.56068741 34.86710083 24.63895294 34.86529541 25.74989319 C34.86088534 29.32286171 34.86381195 32.89578095 34.8671875 36.46875 C34.86651422 38.94592295 34.86554399 41.42309583 34.86428833 43.90026855 C34.8626233 49.76148576 34.86612898 55.62268501 34.8714391 61.48389959 C34.87519379 66.16066039 34.87386594 70.83740014 34.86962891 75.51416016 C34.86384233 81.95610669 34.86291886 88.39803284 34.86618423 94.83998108 C34.86685265 97.29924016 34.86602806 99.7585001 34.86370468 102.21775818 C34.86117314 105.65105504 34.86502593 109.08428617 34.87060547 112.51757812 C34.86858124 113.54001114 34.86655701 114.56244415 34.86447144 115.61585999 C34.86729126 116.5496196 34.87011108 117.48337921 34.87301636 118.44543457 C34.87339338 119.25732491 34.87377041 120.06921524 34.87415886 120.90570831 C34.92103403 123.19436355 34.92103403 123.19436355 36 126 C38.37632206 127.18816103 39.85451061 127.13916244 42.50634766 127.16113281 C43.44137115 127.17074036 44.37639465 127.1803479 45.3397522 127.19024658 C46.3542746 127.19449646 47.368797 127.19874634 48.4140625 127.203125 C49.97947281 127.21167511 49.97947281 127.21167511 51.57650757 127.22039795 C53.7907408 127.22985898 56.00498818 127.23638629 58.21923828 127.24023438 C61.59042392 127.24990086 64.96098981 127.28089803 68.33203125 127.3125 C70.48437138 127.31903396 72.63671588 127.32428289 74.7890625 127.328125 C76.29262802 127.3466452 76.29262802 127.3466452 77.8265686 127.36553955 C86.87934469 127.33705938 93.47204788 125.26733 100.234375 119.05078125 C103.06998035 115.75721309 104.59459014 112.07753782 106 108 C107.98 108.33 109.96 108.66 112 109 C111.50763455 119.17555262 108.89655135 126.57241513 106 137 C71.02 137 36.04 137 0 137 C0 135.02 0 133.04 0 131 C7.425 130.01 7.425 130.01 15 129 C15.06941106 113.66655714 15.12296544 98.33313244 15.15543652 82.99956799 C15.17091335 75.8801101 15.19201832 68.76075155 15.22631836 61.64135742 C15.2593839 54.77493151 15.27683723 47.90860903 15.28463173 41.04210854 C15.29018873 38.41815882 15.30103969 35.79421496 15.31719017 33.17030907 C15.33886421 29.50428269 15.34197108 25.83868722 15.34057617 22.17260742 C15.351362 21.0800061 15.36214783 19.98740479 15.3732605 18.86169434 C15.36913651 17.86470016 15.36501251 16.86770599 15.36076355 15.84049988 C15.36352893 14.97309268 15.36629431 14.10568548 15.36914349 13.21199322 C14.91623343 10.49805131 14.19089999 9.62282412 12 8 C9.03756274 7.42052719 9.03756274 7.42052719 5.8125 7.3125 C4.72582031 7.24675781 3.63914062 7.18101562 2.51953125 7.11328125 C1.68808594 7.07589844 0.85664062 7.03851562 0 7 C0 4.69 0 2.38 0 0 Z " fill="#1C4E8B" transform="translate(1029,654)"/>
<path d="M0 0 C7.89954252 4.72644897 13.3350887 10.99530968 16.01953125 19.859375 C17.90845938 29.25105504 16.12426446 38.19710016 10.96484375 46.23046875 C5.22777537 53.45944617 -2.56173683 57.13175179 -11.6328125 58.17578125 C-19.96460243 58.47673944 -27.48002592 56.00184307 -33.9375 50.6875 C-39.66026694 45.22325641 -43.23738895 39.51570314 -43.80078125 31.58203125 C-44.0178899 20.3723686 -42.24892146 13.0475939 -34.5 4.6640625 C-25.67037283 -3.20427462 -10.67432812 -5.02418222 0 0 Z " fill="#134787" transform="translate(239.5625,452.0625)"/>
<path d="M0 0 C-0.99 1.485 -0.99 1.485 -2 3 C-2.66 3 -3.32 3 -4 3 C-4.33 84.84 -4.66 166.68 -5 251 C-5.33 251 -5.66 251 -6 251 C-6.33 168.5 -6.66 86 -7 1 C-4.53721199 -0.231394 -2.7204945 -0.07159196 0 0 Z " fill="#4A71A2" transform="translate(304,538)"/>
<path d="M0 0 C0.66 0.33 1.32 0.66 2 1 C-1.96 4.96 -5.92 8.92 -10 13 C-10.66 12.67 -11.32 12.34 -12 12 C-10.75479583 10.55834372 -9.50362077 9.12184348 -8.25 7.6875 C-7.55390625 6.88699219 -6.8578125 6.08648437 -6.140625 5.26171875 C-4.20854665 3.22034399 -2.30056874 1.60107149 0 0 Z " fill="#5B7FAB" transform="translate(911,391)"/>
<path d="M0 0 C0.99 0.33 1.98 0.66 3 1 C-0.3 4.3 -3.6 7.6 -7 11 C-7 7.22089522 -6.00296038 6.53893899 -3.5 3.8125 C-2.8503125 3.09707031 -2.200625 2.38164062 -1.53125 1.64453125 C-1.0259375 1.10183594 -0.520625 0.55914062 0 0 Z " fill="#5F82AD" transform="translate(207,455)"/>
<path d="M0 0 C0.66 0.33 1.32 0.66 2 1 C-0.97 3.97 -3.94 6.94 -7 10 C-7.66 9.67 -8.32 9.34 -9 9 C-8.06725891 7.87105124 -7.12859878 6.74699124 -6.1875 5.625 C-5.66542969 4.99851562 -5.14335938 4.37203125 -4.60546875 3.7265625 C-3 2 -3 2 0 0 Z " fill="#6688B1" transform="translate(1344,660)"/>
</svg>
