<svg width="24" height="24" viewBox="0 0 24 24" fill="none" xmlns="http://www.w3.org/2000/svg">
<g clip-path="url(#clip0_644_536)">
<path d="M24 19.9993C24 21.6533 22.654 22.9993 21 22.9993C21 23.5523 20.553 23.9993 20 23.9993C19.447 23.9993 19 23.5523 19 22.9993H18.732C17.665 22.9993 16.669 22.4252 16.134 21.5002C15.857 21.0212 16.021 20.4103 16.498 20.1343C16.978 19.8553 17.589 20.0213 17.864 20.4983C18.043 20.8083 18.375 20.9993 18.731 20.9993H20.999C21.551 20.9993 21.999 20.5513 21.999 19.9993C21.999 19.6203 21.728 19.3013 21.354 19.2383L18.314 18.7323C16.972 18.5083 15.999 17.3583 15.999 15.9993C15.999 14.3453 17.345 12.9993 18.999 12.9993C18.999 12.4473 19.446 11.9993 19.999 11.9993C20.552 11.9993 20.999 12.4473 20.999 12.9993H21.267C22.334 12.9993 23.33 13.5732 23.865 14.4983C24.142 14.9773 23.978 15.5883 23.501 15.8643C23.02 16.1423 22.41 15.9763 22.135 15.5003C21.956 15.1903 21.624 14.9993 21.268 14.9993H19C18.448 14.9993 18 15.4473 18 15.9993C18 16.3783 18.271 16.6973 18.645 16.7603L21.685 17.2663C23.027 17.4903 24 18.6403 24 19.9993ZM14.983 22.6373C15.083 23.1803 14.723 23.7013 14.18 23.8013C13.464 23.9333 12.731 23.9993 11.999 23.9993C5.383 23.9993 0 18.6163 0 11.9993C0 5.38225 5.35 0.03625 11.938 0.00225C11.979 -0.00075 12.019 -0.00075 12.059 0.00225C17.826 0.03125 22.76 4.14825 23.801 9.81925C23.901 10.3623 23.541 10.8833 22.998 10.9833C22.45 11.0873 21.935 10.7233 21.834 10.1803C21.76 9.77525 21.653 9.38425 21.533 8.99925H16.749C16.749 8.99925 16.747 8.99925 16.746 8.99925C16.745 8.99925 16.744 8.99925 16.743 8.99925H7.972C7.68 9.95225 7.5 10.9603 7.5 11.9993C7.5 13.0383 7.679 14.0473 7.97 14.9993H13C13.553 14.9993 14 15.4463 14 15.9993C14 16.5523 13.553 16.9993 13 16.9993H8.773C9.985 19.4673 11.714 21.3183 12.384 21.9823C12.866 21.9643 13.348 21.9212 13.82 21.8342C14.362 21.7292 14.883 22.0943 14.984 22.6373H14.983ZM5.5 11.9993C5.5 10.9573 5.657 9.95525 5.903 8.99925H2.461C2.162 9.94725 2 10.9543 2 11.9993C2 13.0443 2.163 14.0513 2.461 14.9993H5.903C5.657 14.0433 5.5 13.0413 5.5 11.9993ZM8.778 6.99925H15.23C14.208 4.91925 12.816 3.27725 12.001 2.41325C11.189 3.27525 9.802 4.91625 8.778 6.99925ZM14.594 2.34025C15.537 3.50925 16.632 5.11225 17.425 6.99925H20.663C19.345 4.71625 17.163 3.02825 14.595 2.34025H14.594ZM3.353 6.99925H6.578C7.365 5.12425 8.448 3.52425 9.389 2.35725C6.819 3.05425 4.661 4.74625 3.353 6.99925ZM9.389 21.6413C8.449 20.4743 7.365 18.8743 6.578 16.9993H3.353C4.661 19.2523 6.819 20.9443 9.388 21.6413H9.389Z" fill="#2874EB"/>
</g>
<defs>
<clipPath id="clip0_644_536">
<rect width="24" height="24" fill="white"/>
</clipPath>
</defs>
</svg>
