<svg width="24" height="24" viewBox="0 0 24 24" fill="none" xmlns="http://www.w3.org/2000/svg">
<path d="M11 0C7.691 0 5 2.691 5 6C5 9.309 7.691 12 11 12C14.309 12 17 9.309 17 6C17 2.691 14.309 0 11 0ZM11 10C8.794 10 7 8.206 7 6C7 3.794 8.794 2 11 2C13.206 2 15 3.794 15 6C15 8.206 13.206 10 11 10ZM13.969 15.501C13.831 16.037 13.282 16.358 12.751 16.22C12.183 16.074 11.593 16 11 16C7.141 16 4 19.14 4 23C4 23.552 3.553 24 3 24C2.447 24 2 23.552 2 23C2 18.038 6.037 14 11 14C11.761 14 12.518 14.095 13.249 14.284C13.784 14.421 14.106 14.967 13.969 15.501ZM24 19C24 20.654 22.654 22 21 22V23C21 23.552 20.553 24 20 24C19.447 24 19 23.552 19 23V21.998H18.73C17.664 21.998 16.669 21.424 16.134 20.502C15.857 20.024 16.02 19.412 16.498 19.135C16.976 18.859 17.588 19.021 17.864 19.499C18.043 19.807 18.374 19.998 18.73 19.998L21 20C21.551 20 21.999 19.551 21.999 19C21.999 18.622 21.728 18.302 21.355 18.24L18.314 17.733C16.972 17.51 15.999 16.36 15.999 15C15.999 13.346 17.345 12 18.999 12V11C18.999 10.448 19.446 10 19.999 10C20.552 10 20.999 10.448 20.999 11V12.003H21.27C22.333 12.003 23.328 12.576 23.864 13.498C24.142 13.975 23.98 14.587 23.503 14.865C23.025 15.143 22.412 14.98 22.136 14.503C21.953 14.191 21.63 14.003 21.27 14.003L18.999 14C18.448 14 18 14.449 18 15C18 15.378 18.271 15.698 18.644 15.76L21.685 16.267C23.027 16.49 24 17.64 24 19Z" fill="#0E4DAA"/>
</svg>
